<svg xmlns="http://www.w3.org/2000/svg" xmlns:xlink="http://www.w3.org/1999/xlink" contentStyleType="text/css" data-diagram-type="CLASS" height="395px" preserveAspectRatio="none" style="width:641px;height:395px;background:#FFFFFF;" version="1.1" viewBox="0 0 641 395" width="641px" zoomAndPan="magnify"><defs/><g><!--class users--><g class="entity" data-entity="users" data-source-line="3" data-uid="ent0002" id="entity_users"><rect fill="#FFFFFF" height="109.1875" rx="2.5" ry="2.5" style="stroke:#000000;stroke-width:1;" width="214.4805" x="205.5" y="53"/><ellipse cx="290.0752" cy="67" fill="#FFFFFF" rx="9" ry="9" style="stroke:#000000;stroke-width:1;"/><path d="M294.1846,73 L286.4658,73 L286.4658,60.6094 L294.1846,60.6094 L294.1846,62.7656 L288.9189,62.7656 L288.9189,65.4375 L293.6846,65.4375 L293.6846,67.5938 L288.9189,67.5938 L288.9189,70.8438 L294.1846,70.8438 L294.1846,73 Z " fill="#000000"/><text fill="#000000" font-family="Verdana" font-size="14" lengthAdjust="spacing" textLength="37.8301" x="307.5752" y="71.8467">users</text><line style="stroke:#000000;stroke-width:1;" x1="206.5" x2="418.9805" y1="81" y2="81"/><ellipse cx="216.5" cy="94.6484" fill="#FFFFFF" rx="3" ry="3" style="stroke:#000000;stroke-width:1;"/><text fill="#000000" font-family="Verdana" font-size="14" lengthAdjust="spacing" textLength="101.1377" x="223.5" y="97.9951">id : TEXT &#171;PK&#187;</text><line style="stroke:#000000;stroke-width:1;" x1="206.5" x2="418.9805" y1="105.2969" y2="105.2969"/><text fill="#000000" font-family="Verdana" font-size="14" lengthAdjust="spacing" textLength="87.7666" x="211.5" y="122.292">email : TEXT</text><text fill="#000000" font-family="Verdana" font-size="14" lengthAdjust="spacing" textLength="88.8604" x="211.5" y="138.5889">name : TEXT</text><text fill="#000000" font-family="Verdana" font-size="14" lengthAdjust="spacing" textLength="202.4805" x="211.5" y="154.8857">profile_image_base64 : TEXT</text></g><!--class food_items--><g class="entity" data-entity="food_items" data-source-line="11" data-uid="ent0003" id="entity_food_items"><rect fill="#FFFFFF" height="190.6719" rx="2.5" ry="2.5" style="stroke:#000000;stroke-width:1;" width="141.3223" x="23" y="12"/><ellipse cx="52.4035" cy="26" fill="#FFFFFF" rx="9" ry="9" style="stroke:#000000;stroke-width:1;"/><path d="M56.5128,32 L48.7941,32 L48.7941,19.6094 L56.5128,19.6094 L56.5128,21.7656 L51.2472,21.7656 L51.2472,24.4375 L56.0128,24.4375 L56.0128,26.5938 L51.2472,26.5938 L51.2472,29.8438 L56.5128,29.8438 L56.5128,32 Z " fill="#000000"/><text fill="#000000" font-family="Verdana" font-size="14" lengthAdjust="spacing" textLength="76.8701" x="68.0487" y="30.8467">food_items</text><line style="stroke:#000000;stroke-width:1;" x1="24" x2="163.3223" y1="40" y2="40"/><ellipse cx="34" cy="53.6484" fill="#FFFFFF" rx="3" ry="3" style="stroke:#000000;stroke-width:1;"/><text fill="#000000" font-family="Verdana" font-size="14" lengthAdjust="spacing" textLength="101.1377" x="41" y="56.9951">id : TEXT &#171;PK&#187;</text><line style="stroke:#000000;stroke-width:1;" x1="24" x2="163.3223" y1="64.2969" y2="64.2969"/><text fill="#000000" font-family="Verdana" font-size="14" lengthAdjust="spacing" textLength="88.8604" x="29" y="81.292">name : TEXT</text><text fill="#000000" font-family="Verdana" font-size="14" lengthAdjust="spacing" textLength="111.0293" x="29" y="97.5889">category : TEXT</text><text fill="#000000" font-family="Verdana" font-size="14" lengthAdjust="spacing" textLength="118.2822" x="29" y="113.8857">image_url : TEXT</text><text fill="#000000" font-family="Verdana" font-size="14" lengthAdjust="spacing" textLength="84.4102" x="29" y="130.1826">price : REAL</text><text fill="#000000" font-family="Verdana" font-size="14" lengthAdjust="spacing" textLength="129.3223" x="29" y="146.4795">calories : INTEGER</text><text fill="#000000" font-family="Verdana" font-size="14" lengthAdjust="spacing" textLength="99.6406" x="29" y="162.7764">protein : REAL</text><text fill="#000000" font-family="Verdana" font-size="14" lengthAdjust="spacing" textLength="87.7803" x="29" y="179.0732">carbs : REAL</text><text fill="#000000" font-family="Verdana" font-size="14" lengthAdjust="spacing" textLength="75.8584" x="29" y="195.3701">fats : REAL</text></g><!--class cart--><g class="entity" data-entity="cart" data-source-line="24" data-uid="ent0004" id="entity_cart"><rect fill="#FFFFFF" height="109.1875" rx="2.5" ry="2.5" style="stroke:#000000;stroke-width:1;" width="162.6943" x="12" y="271"/><ellipse cx="75.8364" cy="285" fill="#FFFFFF" rx="9" ry="9" style="stroke:#000000;stroke-width:1;"/><path d="M79.9458,291 L72.2271,291 L72.2271,278.6094 L79.9458,278.6094 L79.9458,280.7656 L74.6802,280.7656 L74.6802,283.4375 L79.4458,283.4375 L79.4458,285.5938 L74.6802,285.5938 L74.6802,288.8438 L79.9458,288.8438 L79.9458,291 Z " fill="#000000"/><text fill="#000000" font-family="Verdana" font-size="14" lengthAdjust="spacing" textLength="27.5215" x="93.3364" y="289.8467">cart</text><line style="stroke:#000000;stroke-width:1;" x1="13" x2="173.6943" y1="299" y2="299"/><ellipse cx="23" cy="312.6484" fill="#FFFFFF" rx="3" ry="3" style="stroke:#000000;stroke-width:1;"/><text fill="#000000" font-family="Verdana" font-size="14" lengthAdjust="spacing" textLength="127.0186" x="30" y="315.9951">id : INTEGER &#171;PK&#187;</text><line style="stroke:#000000;stroke-width:1;" x1="13" x2="173.6943" y1="323.2969" y2="323.2969"/><ellipse cx="23" cy="336.9453" fill="#FFFFFF" rx="3" ry="3" style="stroke:#000000;stroke-width:1;"/><text fill="#000000" font-family="Verdana" font-size="14" lengthAdjust="spacing" textLength="138.2842" x="30" y="340.292">user_id : TEXT &#171;FK&#187;</text><ellipse cx="23" cy="353.2422" fill="#FFFFFF" rx="3" ry="3" style="stroke:#000000;stroke-width:1;"/><text fill="#000000" font-family="Verdana" font-size="14" lengthAdjust="spacing" textLength="138.6943" x="30" y="356.5889">food_id : TEXT &#171;FK&#187;</text><text fill="#000000" font-family="Verdana" font-size="14" lengthAdjust="spacing" textLength="133.4033" x="30" y="372.8857">quantity : INTEGER</text></g><!--class favorites--><g class="entity" data-entity="favorites" data-source-line="32" data-uid="ent0005" id="entity_favorites"><rect fill="#FFFFFF" height="125.4844" rx="2.5" ry="2.5" style="stroke:#000000;stroke-width:1;" width="205.4395" x="210" y="263"/><ellipse cx="278.2695" cy="277" fill="#FFFFFF" rx="9" ry="9" style="stroke:#000000;stroke-width:1;"/><path d="M282.3789,283 L274.6602,283 L274.6602,270.6094 L282.3789,270.6094 L282.3789,272.7656 L277.1133,272.7656 L277.1133,275.4375 L281.8789,275.4375 L281.8789,277.5938 L277.1133,277.5938 L277.1133,280.8438 L282.3789,280.8438 L282.3789,283 Z " fill="#000000"/><text fill="#000000" font-family="Verdana" font-size="14" lengthAdjust="spacing" textLength="61.4004" x="295.7695" y="281.8467">favorites</text><line style="stroke:#000000;stroke-width:1;" x1="211" x2="414.4395" y1="291" y2="291"/><ellipse cx="221" cy="304.6484" fill="#FFFFFF" rx="3" ry="3" style="stroke:#000000;stroke-width:1;"/><text fill="#000000" font-family="Verdana" font-size="14" lengthAdjust="spacing" textLength="160.3574" x="228" y="307.9951">user_id : TEXT &#171;PK,FK&#187;</text><ellipse cx="221" cy="320.9453" fill="#FFFFFF" rx="3" ry="3" style="stroke:#000000;stroke-width:1;"/><text fill="#000000" font-family="Verdana" font-size="14" lengthAdjust="spacing" textLength="181.4395" x="228" y="324.292">restaurant_id : TEXT &#171;PK&#187;</text><line style="stroke:#000000;stroke-width:1;" x1="211" x2="414.4395" y1="331.5938" y2="331.5938"/><text fill="#000000" font-family="Verdana" font-size="14" lengthAdjust="spacing" textLength="169.1621" x="216" y="348.5889">restaurant_name : TEXT</text><text fill="#000000" font-family="Verdana" font-size="14" lengthAdjust="spacing" textLength="173.0654" x="216" y="364.8857">restaurant_image : TEXT</text><text fill="#000000" font-family="Verdana" font-size="14" lengthAdjust="spacing" textLength="171.3428" x="216" y="381.1826">restaurant_rating : REAL</text></g><!--class charities--><g class="entity" data-entity="charities" data-source-line="41" data-uid="ent0006" id="entity_charities"><rect fill="#FFFFFF" height="109.1875" rx="2.5" ry="2.5" style="stroke:#000000;stroke-width:1;" width="184.3574" x="450.5" y="271"/><ellipse cx="508.8882" cy="285" fill="#FFFFFF" rx="9" ry="9" style="stroke:#000000;stroke-width:1;"/><path d="M512.9976,291 L505.2788,291 L505.2788,278.6094 L512.9976,278.6094 L512.9976,280.7656 L507.7319,280.7656 L507.7319,283.4375 L512.4976,283.4375 L512.4976,285.5938 L507.7319,285.5938 L507.7319,288.8438 L512.9976,288.8438 L512.9976,291 Z " fill="#000000"/><text fill="#000000" font-family="Verdana" font-size="14" lengthAdjust="spacing" textLength="60.0811" x="526.3882" y="289.8467">charities</text><line style="stroke:#000000;stroke-width:1;" x1="451.5" x2="633.8574" y1="299" y2="299"/><ellipse cx="461.5" cy="312.6484" fill="#FFFFFF" rx="3" ry="3" style="stroke:#000000;stroke-width:1;"/><text fill="#000000" font-family="Verdana" font-size="14" lengthAdjust="spacing" textLength="160.3574" x="468.5" y="315.9951">user_id : TEXT &#171;PK,FK&#187;</text><ellipse cx="461.5" cy="328.9453" fill="#FFFFFF" rx="3" ry="3" style="stroke:#000000;stroke-width:1;"/><text fill="#000000" font-family="Verdana" font-size="14" lengthAdjust="spacing" textLength="156.707" x="468.5" y="332.292">charity_id : TEXT &#171;PK&#187;</text><line style="stroke:#000000;stroke-width:1;" x1="451.5" x2="633.8574" y1="339.5938" y2="339.5938"/><text fill="#000000" font-family="Verdana" font-size="14" lengthAdjust="spacing" textLength="144.4297" x="456.5" y="356.5889">charity_name : TEXT</text><text fill="#000000" font-family="Verdana" font-size="14" lengthAdjust="spacing" textLength="159.1543" x="456.5" y="372.8857">charity_amount : REAL</text></g><!--link users to cart--><g class="link" data-entity-1="users" data-entity-2="cart" data-source-line="49" data-uid="lnk7" id="link_users_cart"><path codeLine="49" d="M252.3843,167.7877 C218.8143,200.8977 194.4135,224.9582 160.8335,258.0882" fill="none" id="users-cart" style="stroke:#000000;stroke-width:1;"/><line style="stroke:#000000;stroke-width:1;" x1="252.4233" x2="258.041" y1="162.131" y2="167.8267"/><line style="stroke:#000000;stroke-width:1;" x1="250.2874" x2="255.9051" y1="164.2376" y2="169.9334"/><line style="stroke:#000000;stroke-width:1;" x1="252.3843" x2="258.08" y1="167.7877" y2="162.17"/><line style="stroke:#000000;stroke-width:1;" x1="153.7149" x2="152.2339" y1="265.1114" y2="275.0012"/><line style="stroke:#000000;stroke-width:1;" x1="153.7149" x2="143.8061" y1="265.1114" y2="266.4588"/><line style="stroke:#000000;stroke-width:1;" x1="153.7149" x2="148.02" y1="265.1114" y2="270.73"/><ellipse cx="157.986" cy="260.8975" fill="none" rx="4" ry="4" style="stroke:#000000;stroke-width:1;"/></g><!--link food_items to cart--><g class="link" data-entity-1="food_items" data-entity-2="cart" data-source-line="50" data-uid="lnk8" id="link_food_items_cart"><path codeLine="50" d="M93.5,211.24 C93.5,234.36 93.5,232.31 93.5,252.76" fill="none" id="food_items-cart" style="stroke:#000000;stroke-width:1;"/><line style="stroke:#000000;stroke-width:1;" x1="89.5" x2="97.5" y1="207.24" y2="207.24"/><line style="stroke:#000000;stroke-width:1;" x1="89.5" x2="97.5" y1="210.24" y2="210.24"/><line style="stroke:#000000;stroke-width:1;" x1="93.5" x2="93.5" y1="211.24" y2="203.24"/><line style="stroke:#000000;stroke-width:1;" x1="93.5" x2="99.5" y1="262.76" y2="270.76"/><line style="stroke:#000000;stroke-width:1;" x1="93.5" x2="87.5" y1="262.76" y2="270.76"/><line style="stroke:#000000;stroke-width:1;" x1="93.5" x2="93.5" y1="262.76" y2="270.76"/><ellipse cx="93.5" cy="256.76" fill="none" rx="4" ry="4" style="stroke:#000000;stroke-width:1;"/></g><!--link users to favorites--><g class="link" data-entity-1="users" data-entity-2="favorites" data-source-line="51" data-uid="lnk9" id="link_users_favorites"><path codeLine="51" d="M312.5,170.17 C312.5,200.66 312.5,212.95 312.5,244.69" fill="none" id="users-favorites" style="stroke:#000000;stroke-width:1;"/><line style="stroke:#000000;stroke-width:1;" x1="308.5" x2="316.5" y1="166.17" y2="166.17"/><line style="stroke:#000000;stroke-width:1;" x1="308.5" x2="316.5" y1="169.17" y2="169.17"/><line style="stroke:#000000;stroke-width:1;" x1="312.5" x2="312.5" y1="170.17" y2="162.17"/><line style="stroke:#000000;stroke-width:1;" x1="312.5" x2="318.5" y1="254.69" y2="262.69"/><line style="stroke:#000000;stroke-width:1;" x1="312.5" x2="306.5" y1="254.69" y2="262.69"/><line style="stroke:#000000;stroke-width:1;" x1="312.5" x2="312.5" y1="254.69" y2="262.69"/><ellipse cx="312.5" cy="248.69" fill="none" rx="4" ry="4" style="stroke:#000000;stroke-width:1;"/></g><!--link users to charities--><g class="link" data-entity-1="users" data-entity-2="charities" data-source-line="52" data-uid="lnk10" id="link_users_charities"><path codeLine="52" d="M375.4819,167.6463 C410.7419,200.7563 436.8485,225.2782 472.1285,258.4082" fill="none" id="users-charities" style="stroke:#000000;stroke-width:1;"/><line style="stroke:#000000;stroke-width:1;" x1="369.8278" x2="375.3041" y1="167.8241" y2="161.9922"/><line style="stroke:#000000;stroke-width:1;" x1="372.0147" x2="377.491" y1="169.8777" y2="164.0458"/><line style="stroke:#000000;stroke-width:1;" x1="375.4819" x2="369.65" y1="167.6463" y2="162.17"/><line style="stroke:#000000;stroke-width:1;" x1="479.4182" x2="489.3573" y1="265.2536" y2="266.3562"/><line style="stroke:#000000;stroke-width:1;" x1="479.4182" x2="481.1427" y1="265.2536" y2="275.1038"/><line style="stroke:#000000;stroke-width:1;" x1="479.4182" x2="485.25" y1="265.2536" y2="270.73"/><ellipse cx="475.0444" cy="261.1464" fill="none" rx="4" ry="4" style="stroke:#000000;stroke-width:1;"/></g><!--SRC=[ZL9DQyCm3BtdLtWzXkKsTXYbi4CsHiSe9OVTWjeggI2nEriPX7R_VKwT3oTjsIu6wKbwJq- -upsMA0u5a0m2b4nSYrbbK9kPE0P2XBGJJoA9FnCndw-MYuNDHP5zi0GgMiY64koOFZfebL61APMGOxe1WuyF7Vepy6HAxL9YBFyY6q_V0cEkT3ra74-b2ry2RPkUTVpyVkufb2OqDlFsaSIlyTh9P2JfL-cD6S8Ck8yysRQAVS7jm8dci74nzJTwSMZerhu4lYfm38D6topujXimTbvTZ5yjxpi6ZOQXqdPSUijIhsJihj_Rs7eLqS0ayslUxC6Af7-fTBNrJOaTFhb-cuLILP8z2UTVAqwdA5B7vf8S3Fzhb1uLzhPE-hizVW40]--></g></svg>