<svg xmlns="http://www.w3.org/2000/svg" xmlns:xlink="http://www.w3.org/1999/xlink" contentStyleType="text/css" data-diagram-type="DESCRIPTION" height="522px" preserveAspectRatio="none" style="width:723px;height:522px;background:#FFFFFF;" version="1.1" viewBox="0 0 723 522" width="723px" zoomAndPan="magnify"><defs/><g><!--cluster User Actions--><g class="cluster" data-entity="User Actions" data-source-line="5" data-uid="ent0002" id="cluster_User Actions"><path d="M13.5,78.5659 L114.0176,78.5659 A3.75,3.75 0 0 1 116.5176,81.0659 L123.5176,100.8628 L150.5,100.8628 A2.5,2.5 0 0 1 153,103.3628 L153,447.0659 A2.5,2.5 0 0 1 150.5,449.5659 L13.5,449.5659 A2.5,2.5 0 0 1 11,447.0659 L11,81.0659 A2.5,2.5 0 0 1 13.5,78.5659" fill="#FFFFFF" style="stroke:#000000;stroke-width:1;"/><line style="stroke:#000000;stroke-width:1;" x1="11" x2="123.5176" y1="100.8628" y2="100.8628"/><text fill="#000000" font-family="Verdana" font-size="14" font-weight="bold" lengthAdjust="spacing" textLength="99.5176" x="15" y="93.561">User Actions</text></g><!--cluster State Layer--><g class="cluster" data-entity="State Layer" data-source-line="14" data-uid="ent0008" id="cluster_State Layer"><path d="M188.5,156.5659 L280.6777,156.5659 A3.75,3.75 0 0 1 283.1777,159.0659 L290.1777,178.8628 L382.5,178.8628 A2.5,2.5 0 0 1 385,181.3628 L385,447.0659 A2.5,2.5 0 0 1 382.5,449.5659 L188.5,449.5659 A2.5,2.5 0 0 1 186,447.0659 L186,159.0659 A2.5,2.5 0 0 1 188.5,156.5659" fill="#FFFFFF" style="stroke:#000000;stroke-width:1;"/><line style="stroke:#000000;stroke-width:1;" x1="186" x2="290.1777" y1="178.8628" y2="178.8628"/><text fill="#000000" font-family="Verdana" font-size="14" font-weight="bold" lengthAdjust="spacing" textLength="91.1777" x="190" y="171.561">State Layer</text></g><!--cluster Persistence--><g class="cluster" data-entity="Persistence" data-source-line="22" data-uid="ent0013" id="cluster_Persistence"><path d="M533.5,159.5659 L626.5732,159.5659 A3.75,3.75 0 0 1 629.0732,162.0659 L636.0732,181.8628 L713.5,181.8628 A2.5,2.5 0 0 1 716,184.3628 L716,448.0659 A2.5,2.5 0 0 1 713.5,450.5659 L533.5,450.5659 A2.5,2.5 0 0 1 531,448.0659 L531,162.0659 A2.5,2.5 0 0 1 533.5,159.5659" fill="#FFFFFF" style="stroke:#000000;stroke-width:1;"/><line style="stroke:#000000;stroke-width:1;" x1="531" x2="636.0732" y1="181.8628" y2="181.8628"/><text fill="#000000" font-family="Verdana" font-size="14" font-weight="bold" lengthAdjust="spacing" textLength="92.0732" x="535" y="174.561">Persistence</text></g><!--entity SignIn--><g class="entity" data-entity="SignIn" data-source-line="6" data-uid="ent0003" id="entity_SignIn"><rect fill="#FFFFFF" height="36.2969" rx="2.5" ry="2.5" style="stroke:#000000;stroke-width:1;" width="67.9883" x="48" y="113.5659"/><text fill="#000000" font-family="Verdana" font-size="14" lengthAdjust="spacing" textLength="47.9883" x="58" y="136.561">Sign In</text></g><!--entity BrowseFood--><g class="entity" data-entity="BrowseFood" data-source-line="7" data-uid="ent0004" id="entity_BrowseFood"><rect fill="#FFFFFF" height="36.2969" rx="2.5" ry="2.5" style="stroke:#000000;stroke-width:1;" width="109.8037" x="27" y="184.5659"/><text fill="#000000" font-family="Verdana" font-size="14" lengthAdjust="spacing" textLength="89.8037" x="37" y="207.561">Browse Food</text></g><!--entity AddToCart--><g class="entity" data-entity="AddToCart" data-source-line="8" data-uid="ent0005" id="entity_AddToCart"><rect fill="#FFFFFF" height="36.2969" rx="2.5" ry="2.5" style="stroke:#000000;stroke-width:1;" width="99.9053" x="32" y="255.5659"/><text fill="#000000" font-family="Verdana" font-size="14" lengthAdjust="spacing" textLength="79.9053" x="42" y="278.561">Add to Cart</text></g><!--entity Checkout--><g class="entity" data-entity="Checkout" data-source-line="9" data-uid="ent0006" id="entity_Checkout"><rect fill="#FFFFFF" height="36.2969" rx="2.5" ry="2.5" style="stroke:#000000;stroke-width:1;" width="85.9941" x="39" y="326.5659"/><text fill="#000000" font-family="Verdana" font-size="14" lengthAdjust="spacing" textLength="65.9941" x="49" y="349.561">Checkout</text></g><!--entity ScanFood--><g class="entity" data-entity="ScanFood" data-source-line="10" data-uid="ent0007" id="entity_ScanFood"><rect fill="#FFFFFF" height="36.2969" rx="2.5" ry="2.5" style="stroke:#000000;stroke-width:1;" width="92.5566" x="35.5" y="397.5659"/><text fill="#000000" font-family="Verdana" font-size="14" lengthAdjust="spacing" textLength="72.5566" x="45.5" y="420.561">Scan Food</text></g><!--entity Auth--><g class="entity" data-entity="Auth" data-source-line="15" data-uid="ent0009" id="entity_Auth"><ellipse cx="285.7134" cy="206.8086" fill="#FFFFFF" rx="61.7134" ry="14.7427" style="stroke:#000000;stroke-width:1;"/><text fill="#000000" font-family="Verdana" font-size="14" lengthAdjust="spacing" textLength="84.5537" x="243.4365" y="211.457">AuthService</text></g><!--entity DB--><g class="entity" data-entity="DB" data-source-line="16" data-uid="ent0010" id="entity_DB"><ellipse cx="285.4234" cy="273.4506" fill="#FFFFFF" rx="74.9234" ry="17.3847" style="stroke:#000000;stroke-width:1;"/><text fill="#000000" font-family="Verdana" font-size="14" lengthAdjust="spacing" textLength="118.542" x="226.1524" y="278.099">DatabaseService</text></g><!--entity Firestore--><g class="entity" data-entity="Firestore" data-source-line="17" data-uid="ent0011" id="entity_Firestore"><ellipse cx="285.4704" cy="343.56" fill="#FFFFFF" rx="72.9704" ry="16.9941" style="stroke:#000000;stroke-width:1;"/><text fill="#000000" font-family="Verdana" font-size="14" lengthAdjust="spacing" textLength="113.7705" x="228.5852" y="348.2084">FirestoreService</text></g><!--entity Spoonacular--><g class="entity" data-entity="Spoonacular" data-source-line="18" data-uid="ent0012" id="entity_Spoonacular"><ellipse cx="285.5153" cy="414.669" fill="#FFFFFF" rx="83.5153" ry="19.1031" style="stroke:#000000;stroke-width:1;"/><text fill="#000000" font-family="Verdana" font-size="14" lengthAdjust="spacing" textLength="138.8926" x="216.069" y="419.3174">SpoonacularService</text></g><!--entity SQL--><g class="entity" data-entity="SQL" data-source-line="23" data-uid="ent0014" id="entity_SQL"><path d="M566.5,204.5659 C566.5,194.5659 623.4355,194.5659 623.4355,194.5659 C623.4355,194.5659 680.3711,194.5659 680.3711,204.5659 L680.3711,246.1597 C680.3711,256.1597 623.4355,256.1597 623.4355,256.1597 C623.4355,256.1597 566.5,256.1597 566.5,246.1597 L566.5,204.5659" fill="#FFFFFF" style="stroke:#000000;stroke-width:1;"/><path d="M566.5,204.5659 C566.5,214.5659 623.4355,214.5659 623.4355,214.5659 C623.4355,214.5659 680.3711,214.5659 680.3711,204.5659" fill="none" style="stroke:#000000;stroke-width:1;"/><text fill="#000000" font-family="Verdana" font-size="14" lengthAdjust="spacing" textLength="45.6982" x="576.5" y="231.561">SQLite</text><text fill="#000000" font-family="Verdana" font-size="14" lengthAdjust="spacing" textLength="93.8711" x="576.5" y="247.8579">(iOS/Android)</text></g><!--entity Prefs--><g class="entity" data-entity="Prefs" data-source-line="24" data-uid="ent0015" id="entity_Prefs"><path d="M547,301.5659 C547,291.5659 623.3975,291.5659 623.3975,291.5659 C623.3975,291.5659 699.7949,291.5659 699.7949,301.5659 L699.7949,343.1597 C699.7949,353.1597 623.3975,353.1597 623.3975,353.1597 C623.3975,353.1597 547,353.1597 547,343.1597 L547,301.5659" fill="#FFFFFF" style="stroke:#000000;stroke-width:1;"/><path d="M547,301.5659 C547,311.5659 623.3975,311.5659 623.3975,311.5659 C623.3975,311.5659 699.7949,311.5659 699.7949,301.5659" fill="none" style="stroke:#000000;stroke-width:1;"/><text fill="#000000" font-family="Verdana" font-size="14" lengthAdjust="spacing" textLength="132.7949" x="557" y="328.561">SharedPreferences</text><text fill="#000000" font-family="Verdana" font-size="14" lengthAdjust="spacing" textLength="42.2666" x="557" y="344.8579">(Web)</text></g><!--entity Cloud--><g class="entity" data-entity="Cloud" data-source-line="25" data-uid="ent0016" id="entity_Cloud"><path d="M563.5587,397.085 C567.4556,391.5158 572.3587,391.7043 576.2104,397.1368 C579.9196,391.3385 583.6402,391.2068 588.1399,396.2685 C592.4921,390.7931 596.1575,390.0549 600.1043,396.6696 C603.8239,390.2126 608.3016,388.1888 613.8104,394.7918 C616.7538,389.5004 621.0476,389.1995 624.6473,394.0935 C628.2618,388.5915 633.8766,388.3116 636.5915,394.9766 C640.6924,389.0331 645.0812,389.3071 649.0188,395.1489 C652.5183,390.1141 658.2227,389.9397 660.9163,396.0121 C664.8246,389.928 669.6328,389.6639 673.4661,396.0873 C677.4816,391.8897 680.7348,391.5069 684.0647,396.8491 C692.1153,401.0966 692.2047,406.1118 686.6165,412.5728 C693.8307,417.3591 692.9484,423.5212 685.7234,427.44 C682.9767,433.0515 678.0614,434.0907 673.4867,429.6697 C670.4298,436.5072 666.2743,437.3081 660.7327,432.3581 C657.4305,439.6268 653.2706,439.9425 648.139,434.1178 C646.2439,439.6568 640.9306,440.3816 637.4153,435.8415 C634.4584,442.1127 628.0013,442.4996 624.4301,436.4912 C620.6123,442.309 614.7857,441.6374 612.7284,434.8561 C609.1374,440.7138 602.974,440.7706 600.3176,433.9418 C596.3081,438.8327 591.6432,437.6977 589.4192,432.0885 C584.1531,437.3853 578.1314,436.6255 575.6345,429.1094 C571.4362,433.5239 567.4306,432.1933 565.355,426.8689 C555.3903,428.0369 549.9769,423.0671 554.2926,412.9144 C549.1298,404.5163 553.168,396.3785 563.5587,397.085" fill="#FFFFFF" style="stroke:#000000;stroke-width:1;"/><text fill="#000000" font-family="Verdana" font-size="14" lengthAdjust="spacing" textLength="106.4697" x="570.5" y="416.561">Cloud Firestore</text></g><!--link SignIn to Auth--><g class="link" data-entity-1="SignIn" data-entity-2="Auth" data-source-line="29" data-uid="lnk17" id="link_SignIn_Auth"><path d="M116.27,143.9459 C153.83,157.9259 208.9165,178.4339 246.2265,192.3139" fill="none" id="SignIn-to-Auth" style="stroke:#000000;stroke-width:1;"/><polygon fill="#000000" points="251.85,194.4059,244.8095,187.5189,247.1638,192.6626,242.0201,195.0168,251.85,194.4059" style="stroke:#000000;stroke-width:1;"/></g><!--link Auth to SQL--><g class="link" data-entity-1="Auth" data-entity-2="SQL" data-source-line="30" data-uid="lnk18" id="link_Auth_SQL"><path d="M292.64,191.7759 C306.52,160.5459 343.65,88.4659 401,60.5659 C446.56,38.3959 470.46,36.4159 515,60.5659 C567.3,88.9059 596.1091,149.311 610.5191,188.711" fill="none" id="Auth-to-SQL" style="stroke:#000000;stroke-width:1;"/><polygon fill="#000000" points="612.58,194.3459,613.2453,184.5196,610.8626,189.6501,605.732,187.2674,612.58,194.3459" style="stroke:#000000;stroke-width:1;"/><text fill="#000000" font-family="Verdana" font-size="13" lengthAdjust="spacing" textLength="110.8174" x="403" y="24.6328">Store credentials</text><text fill="#000000" font-family="Verdana" font-size="13" lengthAdjust="spacing" textLength="54.2344" x="431.2915" y="39.7656">(mobile)</text></g><!--link Auth to Prefs--><g class="link" data-entity-1="Auth" data-entity-2="Prefs" data-source-line="31" data-uid="lnk19" id="link_Auth_Prefs"><path d="M303.38,192.5859 C345.03,159.8059 453.79,84.9759 515,142.5659 C525.62,152.5559 514.92,261.4259 523,273.5659 C529.08,282.6959 532.3944,286.8727 541.6244,293.0127" fill="none" id="Auth-to-Prefs" style="stroke:#000000;stroke-width:1;"/><polygon fill="#000000" points="546.62,296.3359,541.342,288.0207,542.457,293.5666,536.9111,294.6815,546.62,296.3359" style="stroke:#000000;stroke-width:1;"/><text fill="#000000" font-family="Verdana" font-size="13" lengthAdjust="spacing" textLength="110.8174" x="403" y="102.6328">Store credentials</text><text fill="#000000" font-family="Verdana" font-size="13" lengthAdjust="spacing" textLength="37.0259" x="439.8958" y="117.7656">(web)</text></g><!--link BrowseFood to DB--><g class="link" data-entity-1="BrowseFood" data-entity-2="DB" data-source-line="33" data-uid="lnk20" id="link_BrowseFood_DB"><path d="M129.72,220.7359 C145.05,226.5759 162.2,232.9759 178,238.5659 C198.37,245.7659 215.3824,251.4458 234.6024,257.6758" fill="none" id="BrowseFood-to-DB" style="stroke:#000000;stroke-width:1;"/><polygon fill="#000000" points="240.31,259.5259,232.9819,252.9457,235.5536,257.9842,230.5151,260.5559,240.31,259.5259" style="stroke:#000000;stroke-width:1;"/></g><!--link DB to SQL--><g class="link" data-entity-1="DB" data-entity-2="SQL" data-source-line="34" data-uid="lnk21" id="link_DB_SQL"><path d="M349.5,264.2559 C365.59,259.0759 381.56,251.0459 393,238.5659 C403.49,227.1259 388.83,214.1959 401,204.5659 C447.33,167.8659 511.76,180.489 560.64,198.229" fill="none" id="DB-to-SQL" style="stroke:#000000;stroke-width:1;"/><polygon fill="#000000" points="566.28,200.2759,559.1846,193.4455,561.58,198.5701,556.4553,200.9655,566.28,200.2759" style="stroke:#000000;stroke-width:1;"/><text fill="#000000" font-family="Verdana" font-size="13" lengthAdjust="spacing" textLength="112.6519" x="402" y="163.6328">Query food items</text><text fill="#000000" font-family="Verdana" font-size="13" lengthAdjust="spacing" textLength="54.2344" x="431.2087" y="178.7656">(mobile)</text></g><!--link DB to SQL--><g class="link" data-entity-1="DB" data-entity-2="SQL" data-source-line="38" data-uid="lnk24" id="link_DB_SQL"><path d="M353.11,265.9759 C398.75,260.5659 460.64,252.8059 515,244.5659 C531.68,242.0359 543.8425,240.0156 560.3325,237.0856" fill="none" id="DB-to-SQL-1" style="stroke:#000000;stroke-width:1;"/><polygon fill="#000000" points="566.24,236.0359,556.679,233.6721,561.3171,236.9106,558.0786,241.5487,566.24,236.0359" style="stroke:#000000;stroke-width:1;"/><text fill="#000000" font-family="Verdana" font-size="13" lengthAdjust="spacing" textLength="100.4771" x="408" y="225.6328">Insert cart item</text><text fill="#000000" font-family="Verdana" font-size="13" lengthAdjust="spacing" textLength="54.2344" x="431.1213" y="240.7656">(mobile)</text></g><!--link DB to Prefs--><g class="link" data-entity-1="DB" data-entity-2="Prefs" data-source-line="35" data-uid="lnk22" id="link_DB_Prefs"><path d="M335.52,286.6259 C355.69,291.6059 379.34,296.9459 401,300.5659 C449.22,308.6059 497.8895,313.5927 540.8395,317.0627" fill="none" id="DB-to-Prefs" style="stroke:#000000;stroke-width:1;"/><polygon fill="#000000" points="546.82,317.5459,538.1713,312.8341,541.8362,317.1433,537.5271,320.8082,546.82,317.5459" style="stroke:#000000;stroke-width:1;"/><text fill="#000000" font-family="Verdana" font-size="13" lengthAdjust="spacing" textLength="112.6519" x="402" y="281.6328">Query food items</text><text fill="#000000" font-family="Verdana" font-size="13" lengthAdjust="spacing" textLength="37.0259" x="439.813" y="296.7656">(web)</text></g><!--link DB to Prefs--><g class="link" data-entity-1="DB" data-entity-2="Prefs" data-source-line="39" data-uid="lnk25" id="link_DB_Prefs"><path d="M350.26,282.5259 C366.26,287.6959 381.99,295.8259 393,308.5659 C406.57,324.2659 385.12,341.2059 401,354.5659 C445.75,392.2059 508.9233,376.8852 557.9333,355.9252" fill="none" id="DB-to-Prefs-1" style="stroke:#000000;stroke-width:1;"/><polygon fill="#000000" points="563.45,353.5659,553.6021,353.4271,558.8528,355.532,556.7479,360.7827,563.45,353.5659" style="stroke:#000000;stroke-width:1;"/><text fill="#000000" font-family="Verdana" font-size="13" lengthAdjust="spacing" textLength="97.7729" x="409.5" y="335.6328">Save cart JSON</text><text fill="#000000" font-family="Verdana" font-size="13" lengthAdjust="spacing" textLength="37.0259" x="439.8735" y="350.7656">(web)</text></g><!--link AddToCart to DB--><g class="link" data-entity-1="AddToCart" data-entity-2="DB" data-source-line="37" data-uid="lnk23" id="link_AddToCart_DB"><path d="M132.03,273.5659 C155.57,273.5659 178.26,273.5659 204.38,273.5659" fill="none" id="AddToCart-to-DB" style="stroke:#000000;stroke-width:1;"/><polygon fill="#000000" points="210.38,273.5659,201.38,269.5659,205.38,273.5659,201.38,277.5659,210.38,273.5659" style="stroke:#000000;stroke-width:1;"/></g><!--link Checkout to Firestore--><g class="link" data-entity-1="Checkout" data-entity-2="Firestore" data-source-line="41" data-uid="lnk26" id="link_Checkout_Firestore"><path d="M125.24,344.3559 C150.4,344.2259 177.0101,344.0947 206.1601,343.9547" fill="none" id="Checkout-to-Firestore" style="stroke:#000000;stroke-width:1;"/><polygon fill="#000000" points="212.16,343.9259,203.1409,339.9692,207.1601,343.9499,203.1793,347.9691,212.16,343.9259" style="stroke:#000000;stroke-width:1;"/></g><!--link Firestore to Cloud--><g class="link" data-entity-1="Firestore" data-entity-2="Cloud" data-source-line="42" data-uid="lnk27" id="link_Firestore_Cloud"><path d="M347.64,352.5959 C364.09,357.6159 380.71,365.4259 393,377.5659 C401,385.4659 392.03,394.7859 401,401.5659 C444.46,434.3959 501.6124,434.8591 549.3524,427.9191" fill="none" id="Firestore-to-Cloud" style="stroke:#000000;stroke-width:1;"/><polygon fill="#000000" points="555.29,427.0559,545.8082,424.3923,550.342,427.7752,546.9591,432.309,555.29,427.0559" style="stroke:#000000;stroke-width:1;"/><text fill="#000000" font-family="Verdana" font-size="13" lengthAdjust="spacing" textLength="70.9351" x="423" y="397.6328">Save order</text></g><!--link ScanFood to Spoonacular--><g class="link" data-entity-1="ScanFood" data-entity-2="Spoonacular" data-source-line="44" data-uid="lnk28" id="link_ScanFood_Spoonacular"><path d="M128.72,415.3359 C150.32,415.2259 170.7801,415.1248 195.7301,415.0048" fill="none" id="ScanFood-to-Spoonacular" style="stroke:#000000;stroke-width:1;"/><polygon fill="#000000" points="201.73,414.9759,192.7109,411.0193,196.7301,415,192.7493,419.0192,201.73,414.9759" style="stroke:#000000;stroke-width:1;"/></g><!--link Spoonacular to Cloud--><g class="link" data-entity-1="Spoonacular" data-entity-2="Cloud" data-source-line="45" data-uid="lnk29" id="link_Spoonacular_Cloud"><path d="M304.21,433.3159 C325.07,453.9059 361.87,485.7459 401,498.5659 C449.15,514.3259 467.24,515.4659 515,498.5659 C550.53,485.9859 578.8355,460.511 598.5655,439.281" fill="none" id="Spoonacular-to-Cloud" style="stroke:#000000;stroke-width:1;"/><polygon fill="#000000" points="602.65,434.8859,593.5932,438.7555,599.2462,438.5485,599.4532,444.2015,602.65,434.8859" style="stroke:#000000;stroke-width:1;"/><text fill="#000000" font-family="Verdana" font-size="13" lengthAdjust="spacing" textLength="80.2153" x="418" y="494.6328">Log analysis</text></g><!--SRC=[TLDDRzim3BtxLt2vj3aKlUzG81yea29O6tZ3Bhim4cCBTQH0abi4m_xxI2cnvQAzs2BvgFT8Ft-BBHq9JXqQMtLqY10TUDEq4RJnfA9njgfku5SW3uiKXkg4wXKRWbcPdS7V2a1Qq3OT5slJMDZO6M00EM_ijBxqxZqGF3gd4oR74avn2wr5r0fzJ3YEVpg9fh1LI-hLzHbp3JueKcX7FeaIspyPi8uO2RPu9Z_ELoJpUBUBFhOr-JUZQ9x4S2pvDKRSOw2ojbvAvP7N6ABpazAG54HzSiwYwZlq9QP8Pualv8C9aQoYKMAHp1BrHGchtsrDf3_srZpNzmkhlJDwdaVVRQV85Ztf5qy7yd9JuARVjCzWIGU6gyxrclUSNiC0UTsIoo9Npbgw-2H_TRYxUyXxaaUAc1- -yygv7nGpauq6Es4zkhtfQ3v24_iNu7UMM5MZRr83RtszB5XsFVap7AJCspYM91VSbU8JP6OO7FSfmSRoNn11ILtwlYQeyOqoxgb-_Z5SVpLhmexE64ufdzT-kSDvpJQjhWxEOWgx5ET9yzOrW1QxCrlcFm00]--></g></svg>