<svg xmlns="http://www.w3.org/2000/svg" xmlns:xlink="http://www.w3.org/1999/xlink" contentStyleType="text/css" data-diagram-type="DESCRIPTION" height="857px" preserveAspectRatio="none" style="width:3712px;height:857px;background:#FFFFFF;" version="1.1" viewBox="0 0 3712 857" width="3712px" zoomAndPan="magnify"><defs/><g><!--cluster lib/--><g class="cluster" data-entity="lib." data-source-line="3" data-uid="ent0002" id="cluster_lib."><path d="M13.5,11 L39.2324,11 A3.75,3.75 0 0 1 41.7324,13.5 L48.7324,33.2969 L3314.5,33.2969 A2.5,2.5 0 0 1 3317,35.7969 L3317,847.5 A2.5,2.5 0 0 1 3314.5,850 L13.5,850 A2.5,2.5 0 0 1 11,847.5 L11,13.5 A2.5,2.5 0 0 1 13.5,11" fill="#FFFFFF" style="stroke:#000000;stroke-width:1;"/><line style="stroke:#000000;stroke-width:1;" x1="11" x2="48.7324" y1="33.2969" y2="33.2969"/><text fill="#000000" font-family="Verdana" font-size="14" font-weight="bold" lengthAdjust="spacing" textLength="24.7324" x="15" y="25.9951">lib/</text></g><!--cluster main.dart--><g class="cluster" data-entity="main.dart" data-source-line="4" data-uid="ent0003" id="cluster_main.dart"><path d="M1509.5,54 L1587.6846,54 A3.75,3.75 0 0 1 1590.1846,56.5 L1597.1846,76.2969 L1624.5,76.2969 A2.5,2.5 0 0 1 1627,78.7969 L1627,148.5 A2.5,2.5 0 0 1 1624.5,151 L1509.5,151 A2.5,2.5 0 0 1 1507,148.5 L1507,56.5 A2.5,2.5 0 0 1 1509.5,54" fill="#FFFFFF" style="stroke:#000000;stroke-width:1;"/><line style="stroke:#000000;stroke-width:1;" x1="1507" x2="1597.1846" y1="76.2969" y2="76.2969"/><text fill="#000000" font-family="Verdana" font-size="14" font-weight="bold" lengthAdjust="spacing" textLength="77.1846" x="1511" y="68.9951">main.dart</text></g><!--cluster screens/--><g class="cluster" data-entity="screens." data-source-line="8" data-uid="ent0005" id="cluster_screens."><path d="M352.5,314 L419.4395,314 A3.75,3.75 0 0 1 421.9395,316.5 L428.9395,336.2969 L1980.5,336.2969 A2.5,2.5 0 0 1 1983,338.7969 L1983,552.5 A2.5,2.5 0 0 1 1980.5,555 L352.5,555 A2.5,2.5 0 0 1 350,552.5 L350,316.5 A2.5,2.5 0 0 1 352.5,314" fill="#FFFFFF" style="stroke:#000000;stroke-width:1;"/><line style="stroke:#000000;stroke-width:1;" x1="350" x2="428.9395" y1="336.2969" y2="336.2969"/><text fill="#000000" font-family="Verdana" font-size="14" font-weight="bold" lengthAdjust="spacing" textLength="65.9395" x="354" y="328.9951">screens/</text></g><!--cluster services/--><g class="cluster" data-entity="services." data-source-line="23" data-uid="ent0018" id="cluster_services."><path d="M2009.5,458 L2080.3975,458 A3.75,3.75 0 0 1 2082.8975,460.5 L2089.8975,480.2969 L3148.5,480.2969 A2.5,2.5 0 0 1 3151,482.7969 L3151,698.5 A2.5,2.5 0 0 1 3148.5,701 L2009.5,701 A2.5,2.5 0 0 1 2007,698.5 L2007,460.5 A2.5,2.5 0 0 1 2009.5,458" fill="#FFFFFF" style="stroke:#000000;stroke-width:1;"/><line style="stroke:#000000;stroke-width:1;" x1="2007" x2="2089.8975" y1="480.2969" y2="480.2969"/><text fill="#000000" font-family="Verdana" font-size="14" font-weight="bold" lengthAdjust="spacing" textLength="69.8975" x="2011" y="472.9951">services/</text></g><!--cluster models/--><g class="cluster" data-entity="models." data-source-line="33" data-uid="ent0026" id="cluster_models."><path d="M37.5,314 L100.4678,314 A3.75,3.75 0 0 1 102.9678,316.5 L109.9678,336.2969 L323.5,336.2969 A2.5,2.5 0 0 1 326,338.7969 L326,552.5 A2.5,2.5 0 0 1 323.5,555 L37.5,555 A2.5,2.5 0 0 1 35,552.5 L35,316.5 A2.5,2.5 0 0 1 37.5,314" fill="#FFFFFF" style="stroke:#000000;stroke-width:1;"/><line style="stroke:#000000;stroke-width:1;" x1="35" x2="109.9678" y1="336.2969" y2="336.2969"/><text fill="#000000" font-family="Verdana" font-size="14" font-weight="bold" lengthAdjust="spacing" textLength="61.9678" x="39" y="328.9951">models/</text></g><!--cluster widgets/--><g class="cluster" data-entity="widgets." data-source-line="39" data-uid="ent0030" id="cluster_widgets."><path d="M351.5,604 L419.9092,604 A3.75,3.75 0 0 1 422.4092,606.5 L429.4092,626.2969 L743.5,626.2969 A2.5,2.5 0 0 1 746,628.7969 L746,823.5 A2.5,2.5 0 0 1 743.5,826 L351.5,826 A2.5,2.5 0 0 1 349,823.5 L349,606.5 A2.5,2.5 0 0 1 351.5,604" fill="#FFFFFF" style="stroke:#000000;stroke-width:1;"/><line style="stroke:#000000;stroke-width:1;" x1="349" x2="429.4092" y1="626.2969" y2="626.2969"/><text fill="#000000" font-family="Verdana" font-size="14" font-weight="bold" lengthAdjust="spacing" textLength="67.4092" x="353" y="618.9951">widgets/</text></g><!--cluster routes/--><g class="cluster" data-entity="routes." data-source-line="45" data-uid="ent0034" id="cluster_routes."><path d="M1495.5,184 L1552.623,184 A3.75,3.75 0 0 1 1555.123,186.5 L1562.123,206.2969 L1638.5,206.2969 A2.5,2.5 0 0 1 1641,208.7969 L1641,278.5 A2.5,2.5 0 0 1 1638.5,281 L1495.5,281 A2.5,2.5 0 0 1 1493,278.5 L1493,186.5 A2.5,2.5 0 0 1 1495.5,184" fill="#FFFFFF" style="stroke:#000000;stroke-width:1;"/><line style="stroke:#000000;stroke-width:1;" x1="1493" x2="1562.123" y1="206.2969" y2="206.2969"/><text fill="#000000" font-family="Verdana" font-size="14" font-weight="bold" lengthAdjust="spacing" textLength="56.123" x="1497" y="198.9951">routes/</text></g><!--cluster middleware/--><g class="cluster" data-entity="middleware." data-source-line="49" data-uid="ent0036" id="cluster_middleware."><path d="M1073.5,54 L1172.1172,54 A3.75,3.75 0 0 1 1174.6172,56.5 L1181.6172,76.2969 L1216.5,76.2969 A2.5,2.5 0 0 1 1219,78.7969 L1219,148.5 A2.5,2.5 0 0 1 1216.5,151 L1073.5,151 A2.5,2.5 0 0 1 1071,148.5 L1071,56.5 A2.5,2.5 0 0 1 1073.5,54" fill="#FFFFFF" style="stroke:#000000;stroke-width:1;"/><line style="stroke:#000000;stroke-width:1;" x1="1071" x2="1181.6172" y1="76.2969" y2="76.2969"/><text fill="#000000" font-family="Verdana" font-size="14" font-weight="bold" lengthAdjust="spacing" textLength="97.6172" x="1075" y="68.9951">middleware/</text></g><!--cluster utils/--><g class="cluster" data-entity="utils." data-source-line="53" data-uid="ent0038" id="cluster_utils."><path d="M302.5,54 L343.2031,54 A3.75,3.75 0 0 1 345.7031,56.5 L352.7031,76.2969 L515.5,76.2969 A2.5,2.5 0 0 1 518,78.7969 L518,148.5 A2.5,2.5 0 0 1 515.5,151 L302.5,151 A2.5,2.5 0 0 1 300,148.5 L300,56.5 A2.5,2.5 0 0 1 302.5,54" fill="#FFFFFF" style="stroke:#000000;stroke-width:1;"/><line style="stroke:#000000;stroke-width:1;" x1="300" x2="352.7031" y1="76.2969" y2="76.2969"/><text fill="#000000" font-family="Verdana" font-size="14" font-weight="bold" lengthAdjust="spacing" textLength="39.7031" x="304" y="68.9951">utils/</text></g><!--entity Main--><g class="entity" data-entity="Main" data-source-line="5" data-uid="ent0004" id="entity_Main"><rect fill="#FFFFFF" height="46.2969" rx="2.5" ry="2.5" style="stroke:#000000;stroke-width:1;" width="87.7148" x="1523" y="89"/><rect fill="#FFFFFF" height="10" style="stroke:#000000;stroke-width:1;" width="15" x="1590.7148" y="94"/><rect fill="#FFFFFF" height="2" style="stroke:#000000;stroke-width:1;" width="4" x="1588.7148" y="96"/><rect fill="#FFFFFF" height="2" style="stroke:#000000;stroke-width:1;" width="4" x="1588.7148" y="100"/><text fill="#000000" font-family="Verdana" font-size="14" lengthAdjust="spacing" textLength="47.7148" x="1538" y="121.9951">MyApp</text></g><!--entity WelcomeScreen--><g class="entity" data-entity="WelcomeScreen" data-source-line="9" data-uid="ent0006" id="entity_WelcomeScreen"><rect fill="#FFFFFF" height="46.2969" rx="2.5" ry="2.5" style="stroke:#000000;stroke-width:1;" width="153.2988" x="980.5" y="349"/><rect fill="#FFFFFF" height="10" style="stroke:#000000;stroke-width:1;" width="15" x="1113.7988" y="354"/><rect fill="#FFFFFF" height="2" style="stroke:#000000;stroke-width:1;" width="4" x="1111.7988" y="356"/><rect fill="#FFFFFF" height="2" style="stroke:#000000;stroke-width:1;" width="4" x="1111.7988" y="360"/><text fill="#000000" font-family="Verdana" font-size="14" lengthAdjust="spacing" textLength="113.2988" x="995.5" y="381.9951">WelcomeScreen</text></g><!--entity SignInScreen--><g class="entity" data-entity="SignInScreen" data-source-line="10" data-uid="ent0007" id="entity_SignInScreen"><rect fill="#FFFFFF" height="46.2969" rx="2.5" ry="2.5" style="stroke:#000000;stroke-width:1;" width="131.9775" x="1501" y="349"/><rect fill="#FFFFFF" height="10" style="stroke:#000000;stroke-width:1;" width="15" x="1612.9775" y="354"/><rect fill="#FFFFFF" height="2" style="stroke:#000000;stroke-width:1;" width="4" x="1610.9775" y="356"/><rect fill="#FFFFFF" height="2" style="stroke:#000000;stroke-width:1;" width="4" x="1610.9775" y="360"/><text fill="#000000" font-family="Verdana" font-size="14" lengthAdjust="spacing" textLength="91.9775" x="1516" y="381.9951">SignInScreen</text></g><!--entity HomeScreen--><g class="entity" data-entity="HomeScreen" data-source-line="11" data-uid="ent0008" id="entity_HomeScreen"><rect fill="#FFFFFF" height="46.2969" rx="2.5" ry="2.5" style="stroke:#000000;stroke-width:1;" width="129.7832" x="1837" y="349"/><rect fill="#FFFFFF" height="10" style="stroke:#000000;stroke-width:1;" width="15" x="1946.7832" y="354"/><rect fill="#FFFFFF" height="2" style="stroke:#000000;stroke-width:1;" width="4" x="1944.7832" y="356"/><rect fill="#FFFFFF" height="2" style="stroke:#000000;stroke-width:1;" width="4" x="1944.7832" y="360"/><text fill="#000000" font-family="Verdana" font-size="14" lengthAdjust="spacing" textLength="89.7832" x="1852" y="381.9951">HomeScreen</text></g><!--entity CartScreen--><g class="entity" data-entity="CartScreen" data-source-line="12" data-uid="ent0009" id="entity_CartScreen"><rect fill="#FFFFFF" height="46.2969" rx="2.5" ry="2.5" style="stroke:#000000;stroke-width:1;" width="118.0391" x="1169" y="349"/><rect fill="#FFFFFF" height="10" style="stroke:#000000;stroke-width:1;" width="15" x="1267.0391" y="354"/><rect fill="#FFFFFF" height="2" style="stroke:#000000;stroke-width:1;" width="4" x="1265.0391" y="356"/><rect fill="#FFFFFF" height="2" style="stroke:#000000;stroke-width:1;" width="4" x="1265.0391" y="360"/><text fill="#000000" font-family="Verdana" font-size="14" lengthAdjust="spacing" textLength="78.0391" x="1184" y="381.9951">CartScreen</text></g><!--entity ProfileScreen--><g class="entity" data-entity="ProfileScreen" data-source-line="13" data-uid="ent0010" id="entity_ProfileScreen"><rect fill="#FFFFFF" height="46.2969" rx="2.5" ry="2.5" style="stroke:#000000;stroke-width:1;" width="132.5244" x="1668.5" y="349"/><rect fill="#FFFFFF" height="10" style="stroke:#000000;stroke-width:1;" width="15" x="1781.0244" y="354"/><rect fill="#FFFFFF" height="2" style="stroke:#000000;stroke-width:1;" width="4" x="1779.0244" y="356"/><rect fill="#FFFFFF" height="2" style="stroke:#000000;stroke-width:1;" width="4" x="1779.0244" y="360"/><text fill="#000000" font-family="Verdana" font-size="14" lengthAdjust="spacing" textLength="92.5244" x="1683.5" y="381.9951">ProfileScreen</text></g><!--entity CameraScreen--><g class="entity" data-entity="CameraScreen" data-source-line="14" data-uid="ent0011" id="entity_CameraScreen"><rect fill="#FFFFFF" height="46.2969" rx="2.5" ry="2.5" style="stroke:#000000;stroke-width:1;" width="143.3799" x="1322.5" y="349"/><rect fill="#FFFFFF" height="10" style="stroke:#000000;stroke-width:1;" width="15" x="1445.8799" y="354"/><rect fill="#FFFFFF" height="2" style="stroke:#000000;stroke-width:1;" width="4" x="1443.8799" y="356"/><rect fill="#FFFFFF" height="2" style="stroke:#000000;stroke-width:1;" width="4" x="1443.8799" y="360"/><text fill="#000000" font-family="Verdana" font-size="14" lengthAdjust="spacing" textLength="103.3799" x="1337.5" y="381.9951">CameraScreen</text></g><!--entity FoodDetectionResults--><g class="entity" data-entity="FoodDetectionResults" data-source-line="15" data-uid="ent0012" id="entity_FoodDetectionResults"><rect fill="#FFFFFF" height="46.2969" rx="2.5" ry="2.5" style="stroke:#000000;stroke-width:1;" width="193.2617" x="366.5" y="349"/><rect fill="#FFFFFF" height="10" style="stroke:#000000;stroke-width:1;" width="15" x="539.7617" y="354"/><rect fill="#FFFFFF" height="2" style="stroke:#000000;stroke-width:1;" width="4" x="537.7617" y="356"/><rect fill="#FFFFFF" height="2" style="stroke:#000000;stroke-width:1;" width="4" x="537.7617" y="360"/><text fill="#000000" font-family="Verdana" font-size="14" lengthAdjust="spacing" textLength="153.2617" x="381.5" y="381.9951">FoodDetectionResults</text></g><!--entity PaymobCheckout--><g class="entity" data-entity="PaymobCheckout" data-source-line="16" data-uid="ent0013" id="entity_PaymobCheckout"><rect fill="#FFFFFF" height="46.2969" rx="2.5" ry="2.5" style="stroke:#000000;stroke-width:1;" width="162.3906" x="595" y="349"/><rect fill="#FFFFFF" height="10" style="stroke:#000000;stroke-width:1;" width="15" x="737.3906" y="354"/><rect fill="#FFFFFF" height="2" style="stroke:#000000;stroke-width:1;" width="4" x="735.3906" y="356"/><rect fill="#FFFFFF" height="2" style="stroke:#000000;stroke-width:1;" width="4" x="735.3906" y="360"/><text fill="#000000" font-family="Verdana" font-size="14" lengthAdjust="spacing" textLength="122.3906" x="610" y="381.9951">PaymobCheckout</text></g><!--entity PaymobSuccess--><g class="entity" data-entity="PaymobSuccess" data-source-line="17" data-uid="ent0014" id="entity_PaymobSuccess"><rect fill="#FFFFFF" height="46.2969" rx="2.5" ry="2.5" style="stroke:#000000;stroke-width:1;" width="152.752" x="792.5" y="349"/><rect fill="#FFFFFF" height="10" style="stroke:#000000;stroke-width:1;" width="15" x="925.252" y="354"/><rect fill="#FFFFFF" height="2" style="stroke:#000000;stroke-width:1;" width="4" x="923.252" y="356"/><rect fill="#FFFFFF" height="2" style="stroke:#000000;stroke-width:1;" width="4" x="923.252" y="360"/><text fill="#000000" font-family="Verdana" font-size="14" lengthAdjust="spacing" textLength="112.752" x="807.5" y="381.9951">PaymobSuccess</text></g><!--entity CharityScreen--><g class="entity" data-entity="CharityScreen" data-source-line="18" data-uid="ent0015" id="entity_CharityScreen"><rect fill="#FFFFFF" height="46.2969" rx="2.5" ry="2.5" style="stroke:#000000;stroke-width:1;" width="139.0869" x="393.5" y="493"/><rect fill="#FFFFFF" height="10" style="stroke:#000000;stroke-width:1;" width="15" x="512.5869" y="498"/><rect fill="#FFFFFF" height="2" style="stroke:#000000;stroke-width:1;" width="4" x="510.5869" y="500"/><rect fill="#FFFFFF" height="2" style="stroke:#000000;stroke-width:1;" width="4" x="510.5869" y="504"/><text fill="#000000" font-family="Verdana" font-size="14" lengthAdjust="spacing" textLength="99.0869" x="408.5" y="525.9951">CharityScreen</text></g><!--entity RestaurantDetail--><g class="entity" data-entity="RestaurantDetail" data-source-line="19" data-uid="ent0016" id="entity_RestaurantDetail"><rect fill="#FFFFFF" height="46.2969" rx="2.5" ry="2.5" style="stroke:#000000;stroke-width:1;" width="158.5146" x="567.5" y="493"/><rect fill="#FFFFFF" height="10" style="stroke:#000000;stroke-width:1;" width="15" x="706.0146" y="498"/><rect fill="#FFFFFF" height="2" style="stroke:#000000;stroke-width:1;" width="4" x="704.0146" y="500"/><rect fill="#FFFFFF" height="2" style="stroke:#000000;stroke-width:1;" width="4" x="704.0146" y="504"/><text fill="#000000" font-family="Verdana" font-size="14" lengthAdjust="spacing" textLength="118.5146" x="582.5" y="525.9951">RestaurantDetail</text></g><!--entity BrowseRestaurants--><g class="entity" data-entity="BrowseRestaurants" data-source-line="20" data-uid="ent0017" id="entity_BrowseRestaurants"><rect fill="#FFFFFF" height="46.2969" rx="2.5" ry="2.5" style="stroke:#000000;stroke-width:1;" width="175.8506" x="761" y="493"/><rect fill="#FFFFFF" height="10" style="stroke:#000000;stroke-width:1;" width="15" x="916.8506" y="498"/><rect fill="#FFFFFF" height="2" style="stroke:#000000;stroke-width:1;" width="4" x="914.8506" y="500"/><rect fill="#FFFFFF" height="2" style="stroke:#000000;stroke-width:1;" width="4" x="914.8506" y="504"/><text fill="#000000" font-family="Verdana" font-size="14" lengthAdjust="spacing" textLength="135.8506" x="776" y="525.9951">BrowseRestaurants</text></g><!--entity Auth--><g class="entity" data-entity="Auth" data-source-line="24" data-uid="ent0019" id="entity_Auth"><rect fill="#FFFFFF" height="46.2969" rx="2.5" ry="2.5" style="stroke:#000000;stroke-width:1;" width="124.5537" x="2606.5" y="493"/><rect fill="#FFFFFF" height="10" style="stroke:#000000;stroke-width:1;" width="15" x="2711.0537" y="498"/><rect fill="#FFFFFF" height="2" style="stroke:#000000;stroke-width:1;" width="4" x="2709.0537" y="500"/><rect fill="#FFFFFF" height="2" style="stroke:#000000;stroke-width:1;" width="4" x="2709.0537" y="504"/><text fill="#000000" font-family="Verdana" font-size="14" lengthAdjust="spacing" textLength="84.5537" x="2621.5" y="525.9951">AuthService</text></g><!--entity DB--><g class="entity" data-entity="DB" data-source-line="25" data-uid="ent0020" id="entity_DB"><rect fill="#FFFFFF" height="46.2969" rx="2.5" ry="2.5" style="stroke:#000000;stroke-width:1;" width="158.542" x="2976.5" y="639"/><rect fill="#FFFFFF" height="10" style="stroke:#000000;stroke-width:1;" width="15" x="3115.042" y="644"/><rect fill="#FFFFFF" height="2" style="stroke:#000000;stroke-width:1;" width="4" x="3113.042" y="646"/><rect fill="#FFFFFF" height="2" style="stroke:#000000;stroke-width:1;" width="4" x="3113.042" y="650"/><text fill="#000000" font-family="Verdana" font-size="14" lengthAdjust="spacing" textLength="118.542" x="2991.5" y="671.9951">DatabaseService</text></g><!--entity Firestore--><g class="entity" data-entity="Firestore" data-source-line="26" data-uid="ent0021" id="entity_Firestore"><rect fill="#FFFFFF" height="46.2969" rx="2.5" ry="2.5" style="stroke:#000000;stroke-width:1;" width="153.7705" x="2981" y="493"/><rect fill="#FFFFFF" height="10" style="stroke:#000000;stroke-width:1;" width="15" x="3114.7705" y="498"/><rect fill="#FFFFFF" height="2" style="stroke:#000000;stroke-width:1;" width="4" x="3112.7705" y="500"/><rect fill="#FFFFFF" height="2" style="stroke:#000000;stroke-width:1;" width="4" x="3112.7705" y="504"/><text fill="#000000" font-family="Verdana" font-size="14" lengthAdjust="spacing" textLength="113.7705" x="2996" y="525.9951">FirestoreService</text></g><!--entity Paymob--><g class="entity" data-entity="Paymob" data-source-line="27" data-uid="ent0022" id="entity_Paymob"><rect fill="#FFFFFF" height="46.2969" rx="2.5" ry="2.5" style="stroke:#000000;stroke-width:1;" width="148.1377" x="2023" y="493"/><rect fill="#FFFFFF" height="10" style="stroke:#000000;stroke-width:1;" width="15" x="2151.1377" y="498"/><rect fill="#FFFFFF" height="2" style="stroke:#000000;stroke-width:1;" width="4" x="2149.1377" y="500"/><rect fill="#FFFFFF" height="2" style="stroke:#000000;stroke-width:1;" width="4" x="2149.1377" y="504"/><text fill="#000000" font-family="Verdana" font-size="14" lengthAdjust="spacing" textLength="108.1377" x="2038" y="525.9951">PaymobService</text></g><!--entity Spoon--><g class="entity" data-entity="Spoon" data-source-line="28" data-uid="ent0023" id="entity_Spoon"><rect fill="#FFFFFF" height="46.2969" rx="2.5" ry="2.5" style="stroke:#000000;stroke-width:1;" width="178.8926" x="2392.5" y="493"/><rect fill="#FFFFFF" height="10" style="stroke:#000000;stroke-width:1;" width="15" x="2551.3926" y="498"/><rect fill="#FFFFFF" height="2" style="stroke:#000000;stroke-width:1;" width="4" x="2549.3926" y="500"/><rect fill="#FFFFFF" height="2" style="stroke:#000000;stroke-width:1;" width="4" x="2549.3926" y="504"/><text fill="#000000" font-family="Verdana" font-size="14" lengthAdjust="spacing" textLength="138.8926" x="2407.5" y="525.9951">SpoonacularService</text></g><!--entity Location--><g class="entity" data-entity="Location" data-source-line="29" data-uid="ent0024" id="entity_Location"><rect fill="#FFFFFF" height="46.2969" rx="2.5" ry="2.5" style="stroke:#000000;stroke-width:1;" width="151.2002" x="2206.5" y="493"/><rect fill="#FFFFFF" height="10" style="stroke:#000000;stroke-width:1;" width="15" x="2337.7002" y="498"/><rect fill="#FFFFFF" height="2" style="stroke:#000000;stroke-width:1;" width="4" x="2335.7002" y="500"/><rect fill="#FFFFFF" height="2" style="stroke:#000000;stroke-width:1;" width="4" x="2335.7002" y="504"/><text fill="#000000" font-family="Verdana" font-size="14" lengthAdjust="spacing" textLength="111.2002" x="2221.5" y="525.9951">LocationService</text></g><!--entity Storage--><g class="entity" data-entity="Storage" data-source-line="30" data-uid="ent0025" id="entity_Storage"><rect fill="#FFFFFF" height="46.2969" rx="2.5" ry="2.5" style="stroke:#000000;stroke-width:1;" width="179.3301" x="2766.5" y="493"/><rect fill="#FFFFFF" height="10" style="stroke:#000000;stroke-width:1;" width="15" x="2925.8301" y="498"/><rect fill="#FFFFFF" height="2" style="stroke:#000000;stroke-width:1;" width="4" x="2923.8301" y="500"/><rect fill="#FFFFFF" height="2" style="stroke:#000000;stroke-width:1;" width="4" x="2923.8301" y="504"/><text fill="#000000" font-family="Verdana" font-size="14" lengthAdjust="spacing" textLength="139.3301" x="2781.5" y="525.9951">AuthStorageService</text></g><!--entity FoodItem--><g class="entity" data-entity="FoodItem" data-source-line="34" data-uid="ent0027" id="entity_FoodItem"><rect fill="#FFFFFF" height="46.2969" rx="2.5" ry="2.5" style="stroke:#000000;stroke-width:1;" width="105.9395" x="51" y="349"/><rect fill="#FFFFFF" height="10" style="stroke:#000000;stroke-width:1;" width="15" x="136.9395" y="354"/><rect fill="#FFFFFF" height="2" style="stroke:#000000;stroke-width:1;" width="4" x="134.9395" y="356"/><rect fill="#FFFFFF" height="2" style="stroke:#000000;stroke-width:1;" width="4" x="134.9395" y="360"/><text fill="#000000" font-family="Verdana" font-size="14" lengthAdjust="spacing" textLength="65.9395" x="66" y="381.9951">FoodItem</text></g><!--entity Restaurant--><g class="entity" data-entity="Restaurant" data-source-line="35" data-uid="ent0028" id="entity_Restaurant"><rect fill="#FFFFFF" height="46.2969" rx="2.5" ry="2.5" style="stroke:#000000;stroke-width:1;" width="117.2734" x="192.5" y="349"/><rect fill="#FFFFFF" height="10" style="stroke:#000000;stroke-width:1;" width="15" x="289.7734" y="354"/><rect fill="#FFFFFF" height="2" style="stroke:#000000;stroke-width:1;" width="4" x="287.7734" y="356"/><rect fill="#FFFFFF" height="2" style="stroke:#000000;stroke-width:1;" width="4" x="287.7734" y="360"/><text fill="#000000" font-family="Verdana" font-size="14" lengthAdjust="spacing" textLength="77.2734" x="207.5" y="381.9951">Restaurant</text></g><!--entity Charity--><g class="entity" data-entity="Charity" data-source-line="36" data-uid="ent0029" id="entity_Charity"><rect fill="#FFFFFF" height="46.2969" rx="2.5" ry="2.5" style="stroke:#000000;stroke-width:1;" width="90.6475" x="58.5" y="493"/><rect fill="#FFFFFF" height="10" style="stroke:#000000;stroke-width:1;" width="15" x="129.1475" y="498"/><rect fill="#FFFFFF" height="2" style="stroke:#000000;stroke-width:1;" width="4" x="127.1475" y="500"/><rect fill="#FFFFFF" height="2" style="stroke:#000000;stroke-width:1;" width="4" x="127.1475" y="504"/><text fill="#000000" font-family="Verdana" font-size="14" lengthAdjust="spacing" textLength="50.6475" x="73.5" y="525.9951">Charity</text></g><!--entity CustomBottomNavBar--><g class="entity" data-entity="CustomBottomNavBar" data-source-line="40" data-uid="ent0031" id="entity_CustomBottomNavBar"><rect fill="#FFFFFF" height="46.2969" rx="2.5" ry="2.5" style="stroke:#000000;stroke-width:1;" width="196.2627" x="365" y="639"/><rect fill="#FFFFFF" height="10" style="stroke:#000000;stroke-width:1;" width="15" x="541.2627" y="644"/><rect fill="#FFFFFF" height="2" style="stroke:#000000;stroke-width:1;" width="4" x="539.2627" y="646"/><rect fill="#FFFFFF" height="2" style="stroke:#000000;stroke-width:1;" width="4" x="539.2627" y="650"/><text fill="#000000" font-family="Verdana" font-size="14" lengthAdjust="spacing" textLength="156.2627" x="380" y="671.9951">CustomBottomNavBar</text></g><!--entity HomeAppBar--><g class="entity" data-entity="HomeAppBar" data-source-line="41" data-uid="ent0032" id="entity_HomeAppBar"><rect fill="#FFFFFF" height="46.2969" rx="2.5" ry="2.5" style="stroke:#000000;stroke-width:1;" width="132.6338" x="596.5" y="639"/><rect fill="#FFFFFF" height="10" style="stroke:#000000;stroke-width:1;" width="15" x="709.1338" y="644"/><rect fill="#FFFFFF" height="2" style="stroke:#000000;stroke-width:1;" width="4" x="707.1338" y="646"/><rect fill="#FFFFFF" height="2" style="stroke:#000000;stroke-width:1;" width="4" x="707.1338" y="650"/><text fill="#000000" font-family="Verdana" font-size="14" lengthAdjust="spacing" textLength="92.6338" x="611.5" y="671.9951">HomeAppBar</text></g><!--entity OfferCard--><g class="entity" data-entity="OfferCard" data-source-line="42" data-uid="ent0033" id="entity_OfferCard"><rect fill="#FFFFFF" height="46.2969" rx="2.5" ry="2.5" style="stroke:#000000;stroke-width:1;" width="108.2432" x="409" y="764"/><rect fill="#FFFFFF" height="10" style="stroke:#000000;stroke-width:1;" width="15" x="497.2432" y="769"/><rect fill="#FFFFFF" height="2" style="stroke:#000000;stroke-width:1;" width="4" x="495.2432" y="771"/><rect fill="#FFFFFF" height="2" style="stroke:#000000;stroke-width:1;" width="4" x="495.2432" y="775"/><text fill="#000000" font-family="Verdana" font-size="14" lengthAdjust="spacing" textLength="68.2432" x="424" y="796.9951">OfferCard</text></g><!--entity AppRoutes--><g class="entity" data-entity="AppRoutes" data-source-line="46" data-uid="ent0035" id="entity_AppRoutes"><rect fill="#FFFFFF" height="46.2969" rx="2.5" ry="2.5" style="stroke:#000000;stroke-width:1;" width="115.9131" x="1509" y="219"/><rect fill="#FFFFFF" height="10" style="stroke:#000000;stroke-width:1;" width="15" x="1604.9131" y="224"/><rect fill="#FFFFFF" height="2" style="stroke:#000000;stroke-width:1;" width="4" x="1602.9131" y="226"/><rect fill="#FFFFFF" height="2" style="stroke:#000000;stroke-width:1;" width="4" x="1602.9131" y="230"/><text fill="#000000" font-family="Verdana" font-size="14" lengthAdjust="spacing" textLength="75.9131" x="1524" y="251.9951">AppRoutes</text></g><!--entity AuthGuard--><g class="entity" data-entity="AuthGuard" data-source-line="50" data-uid="ent0037" id="entity_AuthGuard"><rect fill="#FFFFFF" height="46.2969" rx="2.5" ry="2.5" style="stroke:#000000;stroke-width:1;" width="115.7559" x="1087" y="89"/><rect fill="#FFFFFF" height="10" style="stroke:#000000;stroke-width:1;" width="15" x="1182.7559" y="94"/><rect fill="#FFFFFF" height="2" style="stroke:#000000;stroke-width:1;" width="4" x="1180.7559" y="96"/><rect fill="#FFFFFF" height="2" style="stroke:#000000;stroke-width:1;" width="4" x="1180.7559" y="100"/><text fill="#000000" font-family="Verdana" font-size="14" lengthAdjust="spacing" textLength="75.7559" x="1102" y="121.9951">AuthGuard</text></g><!--entity PaymentLinkHandler--><g class="entity" data-entity="PaymentLinkHandler" data-source-line="54" data-uid="ent0039" id="entity_PaymentLinkHandler"><rect fill="#FFFFFF" height="46.2969" rx="2.5" ry="2.5" style="stroke:#000000;stroke-width:1;" width="185.7148" x="316" y="89"/><rect fill="#FFFFFF" height="10" style="stroke:#000000;stroke-width:1;" width="15" x="481.7148" y="94"/><rect fill="#FFFFFF" height="2" style="stroke:#000000;stroke-width:1;" width="4" x="479.7148" y="96"/><rect fill="#FFFFFF" height="2" style="stroke:#000000;stroke-width:1;" width="4" x="479.7148" y="100"/><text fill="#000000" font-family="Verdana" font-size="14" lengthAdjust="spacing" textLength="145.7148" x="331" y="121.9951">PaymentLinkHandler</text></g><!--entity SQLite--><g class="entity" data-entity="SQLite" data-source-line="59" data-uid="ent0040" id="entity_SQLite"><path d="M3333.5,774.5 C3333.5,764.5 3396.998,764.5 3396.998,764.5 C3396.998,764.5 3460.4961,764.5 3460.4961,774.5 L3460.4961,799.7969 C3460.4961,809.7969 3396.998,809.7969 3396.998,809.7969 C3396.998,809.7969 3333.5,809.7969 3333.5,799.7969 L3333.5,774.5" fill="#FFFFFF" style="stroke:#000000;stroke-width:1;"/><path d="M3333.5,774.5 C3333.5,784.5 3396.998,784.5 3396.998,784.5 C3396.998,784.5 3460.4961,784.5 3460.4961,774.5" fill="none" style="stroke:#000000;stroke-width:1;"/><text fill="#000000" font-family="Verdana" font-size="14" lengthAdjust="spacing" textLength="106.9961" x="3343.5" y="801.4951">SQLite (Mobile)</text></g><!--entity SharedPreferences--><g class="entity" data-entity="SharedPreferences" data-source-line="60" data-uid="ent0041" id="entity_SharedPreferences"><path d="M3496,774.5 C3496,764.5 3595.7559,764.5 3595.7559,764.5 C3595.7559,764.5 3695.5117,764.5 3695.5117,774.5 L3695.5117,799.7969 C3695.5117,809.7969 3595.7559,809.7969 3595.7559,809.7969 C3595.7559,809.7969 3496,809.7969 3496,799.7969 L3496,774.5" fill="#FFFFFF" style="stroke:#000000;stroke-width:1;"/><path d="M3496,774.5 C3496,784.5 3595.7559,784.5 3595.7559,784.5 C3595.7559,784.5 3695.5117,784.5 3695.5117,774.5" fill="none" style="stroke:#000000;stroke-width:1;"/><text fill="#000000" font-family="Verdana" font-size="14" lengthAdjust="spacing" textLength="179.5117" x="3506" y="801.4951">SharedPreferences (Web)</text></g><!--link Main to AppRoutes--><g class="link" data-entity-1="Main" data-entity-2="AppRoutes" data-source-line="63" data-uid="lnk42" id="link_Main_AppRoutes"><path d="M1567,135 C1567,158.45 1567,189.36 1567,212.85" fill="none" id="Main-to-AppRoutes" style="stroke:#000000;stroke-width:1;"/><polygon fill="#000000" points="1567,218.85,1571,209.85,1567,213.85,1563,209.85,1567,218.85" style="stroke:#000000;stroke-width:1;"/></g><!--link AppRoutes to WelcomeScreen--><g class="link" data-entity-1="AppRoutes" data-entity-2="WelcomeScreen" data-source-line="64" data-uid="lnk43" id="link_AppRoutes_WelcomeScreen"><path d="M1508.86,243.73 C1426.61,246.53 1272.85,258.38 1152,306 C1126.34,316.11 1105.424,330.4603 1087.274,344.9903" fill="none" id="AppRoutes-to-WelcomeScreen" style="stroke:#000000;stroke-width:1;"/><polygon fill="#000000" points="1082.59,348.74,1092.1158,346.238,1086.4933,345.6152,1087.1161,339.9927,1082.59,348.74" style="stroke:#000000;stroke-width:1;"/></g><!--link AppRoutes to SignInScreen--><g class="link" data-entity-1="AppRoutes" data-entity-2="SignInScreen" data-source-line="65" data-uid="lnk44" id="link_AppRoutes_SignInScreen"><path d="M1567,265 C1567,288.45 1567,319.36 1567,342.85" fill="none" id="AppRoutes-to-SignInScreen" style="stroke:#000000;stroke-width:1;"/><polygon fill="#000000" points="1567,348.85,1571,339.85,1567,343.85,1563,339.85,1567,348.85" style="stroke:#000000;stroke-width:1;"/></g><!--link AppRoutes to HomeScreen--><g class="link" data-entity-1="AppRoutes" data-entity-2="HomeScreen" data-source-line="66" data-uid="lnk45" id="link_AppRoutes_HomeScreen"><path d="M1625.17,250.47 C1677.83,258.84 1756.51,275.45 1819,306 C1841.36,316.93 1858.9294,330.5772 1874.6694,344.7372" fill="none" id="AppRoutes-to-HomeScreen" style="stroke:#000000;stroke-width:1;"/><polygon fill="#000000" points="1879.13,348.75,1875.1143,339.757,1875.4128,345.406,1869.7639,345.7045,1879.13,348.75" style="stroke:#000000;stroke-width:1;"/></g><!--link SignInScreen to Auth--><g class="link" data-entity-1="SignInScreen" data-entity-2="Auth" data-source-line="68" data-uid="lnk46" id="link_SignInScreen_Auth"><path d="M1609.89,395.05 C1644.52,411.57 1695.04,432.85 1742,442 C1788.19,451 2544.73,434.05 2589,450 C2612.91,458.62 2630.7269,473.3686 2645.5769,488.6386" fill="none" id="SignInScreen-to-Auth" style="stroke:#000000;stroke-width:1;stroke-dasharray:7,7;"/><polygon fill="#000000" points="2649.76,492.94,2646.353,483.6992,2646.2741,489.3555,2640.6178,489.2766,2649.76,492.94" style="stroke:#000000;stroke-width:1;"/><text fill="#000000" font-family="Verdana" font-size="13" lengthAdjust="spacing" textLength="82.6973" x="1743" y="438.0669">authenticate</text></g><!--link HomeScreen to DB--><g class="link" data-entity-1="HomeScreen" data-entity-2="DB" data-source-line="69" data-uid="lnk47" id="link_HomeScreen_DB"><path d="M1967.08,374.44 C2176.69,379.33 2832.74,396.55 3043,425 C3092.68,431.72 3121.72,410.82 3153,450 C3184.33,489.25 3172.1,516.55 3153,563 C3140.07,594.44 3116.3905,617.4849 3093.6305,635.0449" fill="none" id="HomeScreen-to-DB" style="stroke:#000000;stroke-width:1;stroke-dasharray:7,7;"/><polygon fill="#000000" points="3088.88,638.71,3098.4491,636.3793,3092.8387,635.6557,3093.5623,630.0453,3088.88,638.71" style="stroke:#000000;stroke-width:1;"/><text fill="#000000" font-family="Verdana" font-size="13" lengthAdjust="spacing" textLength="94.4912" x="3173" y="520.5669">get food items</text></g><!--link HomeScreen to Firestore--><g class="link" data-entity-1="HomeScreen" data-entity-2="Firestore" data-source-line="70" data-uid="lnk48" id="link_HomeScreen_Firestore"><path d="M1967.09,373.3 C2168.27,374.93 2777.65,385.22 2963,450 C2989.41,459.23 3010.7235,473.9896 3028.8035,488.9196" fill="none" id="HomeScreen-to-Firestore" style="stroke:#000000;stroke-width:1;stroke-dasharray:7,7;"/><polygon fill="#000000" points="3033.43,492.74,3029.0372,483.925,3029.5746,489.5563,3023.9433,490.0937,3033.43,492.74" style="stroke:#000000;stroke-width:1;"/><text fill="#000000" font-family="Verdana" font-size="13" lengthAdjust="spacing" textLength="100.3184" x="2934" y="438.0669">get restaurants</text></g><!--link CartScreen to Paymob--><g class="link" data-entity-1="CartScreen" data-entity-2="Paymob" data-source-line="71" data-uid="lnk49" id="link_CartScreen_Paymob"><path d="M1235.49,395.02 C1242.27,411.19 1253.99,431.99 1272,442 C1289.26,451.59 1963.94,444.83 1983,450 C2014.22,458.46 2040.9544,474.1138 2062.9644,489.4238" fill="none" id="CartScreen-to-Paymob" style="stroke:#000000;stroke-width:1;stroke-dasharray:7,7;"/><polygon fill="#000000" points="2067.89,492.85,2062.7858,484.427,2063.7854,489.9948,2058.2175,490.9944,2067.89,492.85" style="stroke:#000000;stroke-width:1;"/><text fill="#000000" font-family="Verdana" font-size="13" lengthAdjust="spacing" textLength="112.2837" x="1273" y="438.0669">process payment</text></g><!--link CameraScreen to Spoon--><g class="link" data-entity-1="CameraScreen" data-entity-2="Spoon" data-source-line="72" data-uid="lnk50" id="link_CameraScreen_Spoon"><path d="M1408.31,395.29 C1420.2,411.6 1438.74,432.47 1461,442 C1507.68,461.98 2326.16,436.1 2375,450 C2404.68,458.45 2429.5493,473.9443 2450.0893,489.2543" fill="none" id="CameraScreen-to-Spoon" style="stroke:#000000;stroke-width:1;stroke-dasharray:7,7;"/><polygon fill="#000000" points="2454.9,492.84,2450.0745,484.2543,2450.8911,489.8519,2445.2935,490.6685,2454.9,492.84" style="stroke:#000000;stroke-width:1;"/><text fill="#000000" font-family="Verdana" font-size="13" lengthAdjust="spacing" textLength="83.167" x="1462" y="438.0669">analyze food</text></g><!--link ProfileScreen to Storage--><g class="link" data-entity-1="ProfileScreen" data-entity-2="Storage" data-source-line="73" data-uid="lnk51" id="link_ProfileScreen_Storage"><path d="M1801.34,395.01 C1854.62,411.52 1931.72,432.78 2001,442 C2042.2,447.48 2709.04,438.58 2749,450 C2778.68,458.48 2803.5374,473.9669 2824.0874,489.2669" fill="none" id="ProfileScreen-to-Storage" style="stroke:#000000;stroke-width:1;stroke-dasharray:7,7;"/><polygon fill="#000000" points="2828.9,492.85,2824.0698,484.2669,2824.8895,489.8641,2819.2923,490.6837,2828.9,492.85" style="stroke:#000000;stroke-width:1;"/><text fill="#000000" font-family="Verdana" font-size="13" lengthAdjust="spacing" textLength="75.9116" x="2002" y="438.0669">save profile</text></g><!--link ProfileScreen to Firestore--><g class="link" data-entity-1="ProfileScreen" data-entity-2="Firestore" data-source-line="74" data-uid="lnk52" id="link_ProfileScreen_Firestore"><path d="M1801.55,391.59 C1807.75,392.91 1813.97,394.08 1820,395 C2026.75,426.59 2551.06,432.66 2760,442 C2782.55,443.01 2941.57,442.91 2963,450 C2989.75,458.86 3011.2495,473.8284 3029.3095,488.9484" fill="none" id="ProfileScreen-to-Firestore" style="stroke:#000000;stroke-width:1;stroke-dasharray:7,7;"/><polygon fill="#000000" points="3033.91,492.8,3029.5769,483.9555,3030.0762,489.5903,3024.4414,490.0896,3033.91,492.8" style="stroke:#000000;stroke-width:1;"/><text fill="#000000" font-family="Verdana" font-size="13" lengthAdjust="spacing" textLength="88.8989" x="2761" y="438.0669">upload image</text></g><!--link Auth to DB--><g class="link" data-entity-1="Auth" data-entity-2="DB" data-source-line="76" data-uid="lnk53" id="link_Auth_DB"><path d="M2703.6,539.05 C2717.38,547.25 2733.61,556.21 2749,563 C2823.87,596.02 2907.6047,621.7095 2970.6047,639.0295" fill="none" id="Auth-to-DB" style="stroke:#000000;stroke-width:1;stroke-dasharray:7,7;"/><polygon fill="#000000" points="2976.39,640.62,2968.7723,634.3773,2971.5689,639.2946,2966.6516,642.0911,2976.39,640.62" style="stroke:#000000;stroke-width:1;"/><text fill="#000000" font-family="Verdana" font-size="13" lengthAdjust="spacing" textLength="99.0679" x="2807" y="584.0669">store user data</text></g><!--link DB to SQLite--><g class="link" data-entity-1="DB" data-entity-2="SQLite" data-source-line="77" data-uid="lnk54" id="link_DB_SQLite"><path d="M3117.36,685.13 C3179.68,707.61 3269.9162,740.1536 3331.6362,762.4236" fill="none" id="DB-to-SQLite" style="stroke:#000000;stroke-width:1;stroke-dasharray:7,7;"/><polygon fill="#000000" points="3337.28,764.46,3330.1719,757.6428,3332.5768,762.763,3327.4566,765.1679,3337.28,764.46" style="stroke:#000000;stroke-width:1;"/><text fill="#000000" font-family="Verdana" font-size="13" lengthAdjust="spacing" textLength="44.0908" x="3247" y="730.0669">mobile</text></g><!--link DB to SharedPreferences--><g class="link" data-entity-1="DB" data-entity-2="SharedPreferences" data-source-line="78" data-uid="lnk55" id="link_DB_SharedPreferences"><path d="M3135.72,680.41 C3183.42,690.88 3245.21,704.55 3300,717 C3368.69,732.61 3440.3991,749.3277 3498.8791,763.0677" fill="none" id="DB-to-SharedPreferences" style="stroke:#000000;stroke-width:1;stroke-dasharray:7,7;"/><polygon fill="#000000" points="3504.72,764.44,3496.8735,758.4875,3499.8525,763.2964,3495.0437,766.2755,3504.72,764.44" style="stroke:#000000;stroke-width:1;"/><text fill="#000000" font-family="Verdana" font-size="13" lengthAdjust="spacing" textLength="26.8823" x="3374" y="730.0669">web</text></g><!--SRC=[TLJ1Sjem4BthAxPScXuWTmwP2J1jCWDj6WuvT79Osmjei2MFBCFGJlwzAydO4f03ODu-xNhVxjCNkwEAe2vHAY5gpFUu9HYLChiVmJy1q4CLCoO56XjmW3-hqsDTlmCsi7Ad0Jxu4nzfSaEacll-n1kLkQvexV7tWAtbLZsh17gwvCovR0Ay6BsHvIMf8eC9z5thOa6MSYkrUgMcBMrppe2dIcVp7ULxtTe4NBTvJisPED-XaVQKvELK5bk3od9sb6K7pum-DZG4VOehKSWS9ESVL7bixMuTKA-c-nyY2xIOOKDnT37hUfE62scJ17imwISY1AHJljPQOTwMQ6AAXmDZgNDqqiNXCnQzEnVarf8S0RhHVgKBAgFctOYUBLLNogRotrBoA8ijsIZNlENUgvcs_FqJ3pCqqKBnhWx0hys636zLSIkluOL8vbFNhnwwHQvaKPHqH4FfG7-qdsHlhOpxTmCXPPTIxPzGSIeJ3dq8yHN6up6u7O0bdiYulwBeLW96wzzBQGdkLZfZAtmRUTqz5fDOFYfU376_f7ZjuEwDievy6JkNd6kbWcSQNzFPcnyUe5T2z4yUJtnz4OlzVH4QV2v4J8F9vC6x0AQ0_CFwI5uw4iC1JrdCcC0h01jU8k36g-QIqXkYOvh1d6AuLJmrM8DvjT7E_pmoFneHNooUwHtYtarXUVfBlhn8hgH02oPWOeC7ScaTuGOnVicsBZLoCvMpZ_0YzAq6Jiit2BW92mPzdR08KwZy9lJmrUYdSAJiFm00]--></g></svg>