<svg xmlns="http://www.w3.org/2000/svg" xmlns:xlink="http://www.w3.org/1999/xlink" contentStyleType="text/css" data-diagram-type="SEQUENCE" height="859px" preserveAspectRatio="none" style="width:1285px;height:859px;background:#FFFFFF;" version="1.1" viewBox="0 0 1285 859" width="1285px" zoomAndPan="magnify"><defs/><g><g><title>PaymobService</title><rect fill="#FFFFFF" height="155.5313" style="stroke:#000000;stroke-width:1;" width="10" x="308.3916" y="186.8281"/></g><g><title>PaymobCheckout</title><rect fill="#FFFFFF" height="530.0625" style="stroke:#000000;stroke-width:1;" width="10" x="506.7725" y="142.5625"/></g><g><title>PaymobSuccess</title><rect fill="#FFFFFF" height="87.3984" style="stroke:#000000;stroke-width:1;" width="10" x="893.71" y="497.1563"/></g><rect fill="#FFFFFF" height="279.1328" style="stroke:#000000;stroke-width:1;" width="1263.4111" x="15" y="386.4922"/><rect fill="#FFFFFF" height="73.0703" style="stroke:none;stroke-width:1;" width="1263.4111" x="15" y="592.5547"/><g><title>User</title><rect fill="#000000" fill-opacity="0.00000" height="695.9922" width="8" x="39.9551" y="82.2969"/><line style="stroke:#000000;stroke-width:1;stroke-dasharray:5,5;" x1="43" x2="43" y1="82.2969" y2="778.2891"/></g><g><title>CartScreen</title><rect fill="#000000" fill-opacity="0.00000" height="695.9922" width="8" x="172.3032" y="82.2969"/><line style="stroke:#000000;stroke-width:1;stroke-dasharray:5,5;" x1="176.2837" x2="176.2837" y1="82.2969" y2="778.2891"/></g><g><title>PaymobService</title><rect fill="#000000" fill-opacity="0.00000" height="695.9922" width="8" x="309.3916" y="82.2969"/><line style="stroke:#000000;stroke-width:1;stroke-dasharray:5,5;" x1="313.3228" x2="313.3228" y1="82.2969" y2="778.2891"/></g><g><title>PaymobCheckout</title><rect fill="#000000" fill-opacity="0.00000" height="695.9922" width="8" x="507.7725" y="82.2969"/><line style="stroke:#000000;stroke-width:1;stroke-dasharray:5,5;" x1="511.5771" x2="511.5771" y1="82.2969" y2="778.2891"/></g><g><title>PaymobWebView</title><rect fill="#000000" fill-opacity="0.00000" height="695.9922" width="8" x="673.6025" y="82.2969"/><line style="stroke:#000000;stroke-width:1;stroke-dasharray:5,5;" x1="676.9678" x2="676.9678" y1="82.2969" y2="778.2891"/></g><g><title>PaymobSuccess</title><rect fill="#000000" fill-opacity="0.00000" height="695.9922" width="8" x="894.71" y="82.2969"/><line style="stroke:#000000;stroke-width:1;stroke-dasharray:5,5;" x1="898.334" x2="898.334" y1="82.2969" y2="778.2891"/></g><g><title>DatabaseService</title><rect fill="#000000" fill-opacity="0.00000" height="695.9922" width="8" x="1054.3569" y="82.2969"/><line style="stroke:#000000;stroke-width:1;stroke-dasharray:5,5;" x1="1058.0859" x2="1058.0859" y1="82.2969" y2="778.2891"/></g><g><title>HomeScreen</title><rect fill="#000000" fill-opacity="0.00000" height="695.9922" width="8" x="1202.5195" y="82.2969"/><line style="stroke:#000000;stroke-width:1;stroke-dasharray:5,5;" x1="1205.6279" x2="1205.6279" y1="82.2969" y2="778.2891"/></g><g class="participant participant-head" data-participant="User"><text fill="#000000" font-family="Verdana" font-size="14" lengthAdjust="spacing" textLength="31.9102" x="25" y="78.9951">User</text><ellipse cx="43.9551" cy="14" fill="#FFFFFF" rx="8" ry="8" style="stroke:#000000;stroke-width:1;"/><path d="M43.9551,22 L43.9551,49 M30.9551,30 L56.9551,30 M43.9551,49 L30.9551,64 M43.9551,49 L56.9551,64" fill="none" style="stroke:#000000;stroke-width:1;"/></g><g class="participant participant-tail" data-participant="User"><text fill="#000000" font-family="Verdana" font-size="14" lengthAdjust="spacing" textLength="31.9102" x="25" y="790.2842">User</text><ellipse cx="43.9551" cy="802.5859" fill="#FFFFFF" rx="8" ry="8" style="stroke:#000000;stroke-width:1;"/><path d="M43.9551,810.5859 L43.9551,837.5859 M30.9551,818.5859 L56.9551,818.5859 M43.9551,837.5859 L30.9551,852.5859 M43.9551,837.5859 L56.9551,852.5859" fill="none" style="stroke:#000000;stroke-width:1;"/></g><g class="participant participant-head" data-participant="CartScreen"><rect fill="#FFFFFF" height="30.2969" rx="2.5" ry="2.5" style="stroke:#000000;stroke-width:1;" width="92.0391" x="130.2837" y="51"/><text fill="#000000" font-family="Verdana" font-size="14" lengthAdjust="spacing" textLength="78.0391" x="137.2837" y="70.9951">CartScreen</text></g><g class="participant participant-tail" data-participant="CartScreen"><rect fill="#FFFFFF" height="30.2969" rx="2.5" ry="2.5" style="stroke:#000000;stroke-width:1;" width="92.0391" x="130.2837" y="777.2891"/><text fill="#000000" font-family="Verdana" font-size="14" lengthAdjust="spacing" textLength="78.0391" x="137.2837" y="797.2842">CartScreen</text></g><g class="participant participant-head" data-participant="PaymobService"><rect fill="#FFFFFF" height="30.2969" rx="2.5" ry="2.5" style="stroke:#000000;stroke-width:1;" width="122.1377" x="252.3228" y="51"/><text fill="#000000" font-family="Verdana" font-size="14" lengthAdjust="spacing" textLength="108.1377" x="259.3228" y="70.9951">PaymobService</text></g><g class="participant participant-tail" data-participant="PaymobService"><rect fill="#FFFFFF" height="30.2969" rx="2.5" ry="2.5" style="stroke:#000000;stroke-width:1;" width="122.1377" x="252.3228" y="777.2891"/><text fill="#000000" font-family="Verdana" font-size="14" lengthAdjust="spacing" textLength="108.1377" x="259.3228" y="797.2842">PaymobService</text></g><g class="participant participant-head" data-participant="PaymobCheckout"><rect fill="#FFFFFF" height="30.2969" rx="2.5" ry="2.5" style="stroke:#000000;stroke-width:1;" width="136.3906" x="443.5771" y="51"/><text fill="#000000" font-family="Verdana" font-size="14" lengthAdjust="spacing" textLength="122.3906" x="450.5771" y="70.9951">PaymobCheckout</text></g><g class="participant participant-tail" data-participant="PaymobCheckout"><rect fill="#FFFFFF" height="30.2969" rx="2.5" ry="2.5" style="stroke:#000000;stroke-width:1;" width="136.3906" x="443.5771" y="777.2891"/><text fill="#000000" font-family="Verdana" font-size="14" lengthAdjust="spacing" textLength="122.3906" x="450.5771" y="797.2842">PaymobCheckout</text></g><g class="participant participant-head" data-participant="PaymobWebView"><rect fill="#FFFFFF" height="30.2969" rx="2.5" ry="2.5" style="stroke:#000000;stroke-width:1;" width="135.2695" x="609.9678" y="51"/><text fill="#000000" font-family="Verdana" font-size="14" lengthAdjust="spacing" textLength="121.2695" x="616.9678" y="70.9951">PaymobWebView</text></g><g class="participant participant-tail" data-participant="PaymobWebView"><rect fill="#FFFFFF" height="30.2969" rx="2.5" ry="2.5" style="stroke:#000000;stroke-width:1;" width="135.2695" x="609.9678" y="777.2891"/><text fill="#000000" font-family="Verdana" font-size="14" lengthAdjust="spacing" textLength="121.2695" x="616.9678" y="797.2842">PaymobWebView</text></g><g class="participant participant-head" data-participant="PaymobSuccess"><rect fill="#FFFFFF" height="30.2969" rx="2.5" ry="2.5" style="stroke:#000000;stroke-width:1;" width="126.752" x="835.334" y="51"/><text fill="#000000" font-family="Verdana" font-size="14" lengthAdjust="spacing" textLength="112.752" x="842.334" y="70.9951">PaymobSuccess</text></g><g class="participant participant-tail" data-participant="PaymobSuccess"><rect fill="#FFFFFF" height="30.2969" rx="2.5" ry="2.5" style="stroke:#000000;stroke-width:1;" width="126.752" x="835.334" y="777.2891"/><text fill="#000000" font-family="Verdana" font-size="14" lengthAdjust="spacing" textLength="112.752" x="842.334" y="797.2842">PaymobSuccess</text></g><g class="participant participant-head" data-participant="DatabaseService"><rect fill="#FFFFFF" height="30.2969" rx="2.5" ry="2.5" style="stroke:#000000;stroke-width:1;" width="132.542" x="992.0859" y="51"/><text fill="#000000" font-family="Verdana" font-size="14" lengthAdjust="spacing" textLength="118.542" x="999.0859" y="70.9951">DatabaseService</text></g><g class="participant participant-tail" data-participant="DatabaseService"><rect fill="#FFFFFF" height="30.2969" rx="2.5" ry="2.5" style="stroke:#000000;stroke-width:1;" width="132.542" x="992.0859" y="777.2891"/><text fill="#000000" font-family="Verdana" font-size="14" lengthAdjust="spacing" textLength="118.542" x="999.0859" y="797.2842">DatabaseService</text></g><g class="participant participant-head" data-participant="HomeScreen"><rect fill="#FFFFFF" height="30.2969" rx="2.5" ry="2.5" style="stroke:#000000;stroke-width:1;" width="103.7832" x="1154.6279" y="51"/><text fill="#000000" font-family="Verdana" font-size="14" lengthAdjust="spacing" textLength="89.7832" x="1161.6279" y="70.9951">HomeScreen</text></g><g class="participant participant-tail" data-participant="HomeScreen"><rect fill="#FFFFFF" height="30.2969" rx="2.5" ry="2.5" style="stroke:#000000;stroke-width:1;" width="103.7832" x="1154.6279" y="777.2891"/><text fill="#000000" font-family="Verdana" font-size="14" lengthAdjust="spacing" textLength="89.7832" x="1161.6279" y="797.2842">HomeScreen</text></g><g><title>PaymobService</title><rect fill="#FFFFFF" height="155.5313" style="stroke:#000000;stroke-width:1;" width="10" x="308.3916" y="186.8281"/></g><g><title>PaymobCheckout</title><rect fill="#FFFFFF" height="530.0625" style="stroke:#000000;stroke-width:1;" width="10" x="506.7725" y="142.5625"/></g><g><title>PaymobSuccess</title><rect fill="#FFFFFF" height="87.3984" style="stroke:#000000;stroke-width:1;" width="10" x="893.71" y="497.1563"/></g><g class="message" data-participant-1="User" data-participant-2="CartScreen"><polygon fill="#000000" points="164.3032,109.4297,174.3032,113.4297,164.3032,117.4297,168.3032,113.4297" style="stroke:#000000;stroke-width:1;"/><line style="stroke:#000000;stroke-width:1;" x1="43.9551" x2="170.3032" y1="113.4297" y2="113.4297"/><text fill="#000000" font-family="Verdana" font-size="13" lengthAdjust="spacing" textLength="108.3481" x="50.9551" y="108.3638">Click "Checkout"</text></g><g class="message" data-participant-1="CartScreen" data-participant-2="PaymobCheckout"><polygon fill="#000000" points="494.7725,138.5625,504.7725,142.5625,494.7725,146.5625,498.7725,142.5625" style="stroke:#000000;stroke-width:1;"/><line style="stroke:#000000;stroke-width:1;" x1="176.3032" x2="500.7725" y1="142.5625" y2="142.5625"/><text fill="#000000" font-family="Verdana" font-size="13" lengthAdjust="spacing" textLength="153.1245" x="183.3032" y="137.4966">Navigate with cart data</text></g><g class="message" data-participant-1="PaymobCheckout" data-participant-2="PaymobService"><polygon fill="#000000" points="329.3916,182.8281,319.3916,186.8281,329.3916,190.8281,325.3916,186.8281" style="stroke:#000000;stroke-width:1;"/><line style="stroke:#000000;stroke-width:1;" x1="323.3916" x2="505.7725" y1="186.8281" y2="186.8281"/><text fill="#000000" font-family="Verdana" font-size="13" lengthAdjust="spacing" textLength="102.3877" x="335.3916" y="166.6294">getPaymentUrl(</text><text fill="#000000" font-family="Verdana" font-size="13" lengthAdjust="spacing" textLength="169.3809" x="335.3916" y="181.7622">amount, user, redirectUrl)</text></g><g class="message" data-participant-1="PaymobService" data-participant-2="PaymobService"><line style="stroke:#000000;stroke-width:1;" x1="318.3916" x2="360.3916" y1="215.9609" y2="215.9609"/><line style="stroke:#000000;stroke-width:1;" x1="360.3916" x2="360.3916" y1="215.9609" y2="228.9609"/><line style="stroke:#000000;stroke-width:1;" x1="319.3916" x2="360.3916" y1="228.9609" y2="228.9609"/><polygon fill="#000000" points="329.3916,224.9609,319.3916,228.9609,329.3916,232.9609,325.3916,228.9609" style="stroke:#000000;stroke-width:1;"/><text fill="#000000" font-family="Verdana" font-size="13" lengthAdjust="spacing" textLength="101.6196" x="325.3916" y="210.895">getAuthToken()</text></g><g class="message" data-participant-1="PaymobService" data-participant-2="PaymobService"><line style="stroke:#000000;stroke-width:1;" x1="318.3916" x2="360.3916" y1="258.0938" y2="258.0938"/><line style="stroke:#000000;stroke-width:1;" x1="360.3916" x2="360.3916" y1="258.0938" y2="271.0938"/><line style="stroke:#000000;stroke-width:1;" x1="319.3916" x2="360.3916" y1="271.0938" y2="271.0938"/><polygon fill="#000000" points="329.3916,267.0938,319.3916,271.0938,329.3916,275.0938,325.3916,271.0938" style="stroke:#000000;stroke-width:1;"/><text fill="#000000" font-family="Verdana" font-size="13" lengthAdjust="spacing" textLength="88.8672" x="325.3916" y="253.0278">createOrder()</text></g><g class="message" data-participant-1="PaymobService" data-participant-2="PaymobService"><line style="stroke:#000000;stroke-width:1;" x1="318.3916" x2="360.3916" y1="300.2266" y2="300.2266"/><line style="stroke:#000000;stroke-width:1;" x1="360.3916" x2="360.3916" y1="300.2266" y2="313.2266"/><line style="stroke:#000000;stroke-width:1;" x1="319.3916" x2="360.3916" y1="313.2266" y2="313.2266"/><polygon fill="#000000" points="329.3916,309.2266,319.3916,313.2266,329.3916,317.2266,325.3916,313.2266" style="stroke:#000000;stroke-width:1;"/><text fill="#000000" font-family="Verdana" font-size="13" lengthAdjust="spacing" textLength="113.2041" x="325.3916" y="295.1606">getPaymentKey()</text></g><g class="message" data-participant-1="PaymobService" data-participant-2="PaymobCheckout"><polygon fill="#000000" points="494.7725,338.3594,504.7725,342.3594,494.7725,346.3594,498.7725,342.3594" style="stroke:#000000;stroke-width:1;"/><line style="stroke:#000000;stroke-width:1;stroke-dasharray:2,2;" x1="313.3916" x2="500.7725" y1="342.3594" y2="342.3594"/><text fill="#000000" font-family="Verdana" font-size="13" lengthAdjust="spacing" textLength="135.916" x="320.3916" y="337.2935">Return payment URL</text></g><g class="message" data-participant-1="PaymobCheckout" data-participant-2="PaymobWebView"><polygon fill="#000000" points="665.6025,367.4922,675.6025,371.4922,665.6025,375.4922,669.6025,371.4922" style="stroke:#000000;stroke-width:1;"/><line style="stroke:#000000;stroke-width:1;" x1="516.7725" x2="671.6025" y1="371.4922" y2="371.4922"/><text fill="#000000" font-family="Verdana" font-size="13" lengthAdjust="spacing" textLength="123.3794" x="523.7725" y="366.4263">Load payment URL</text></g><path d="M15,386.4922 L79.4429,386.4922 L79.4429,393.625 L69.4429,403.625 L15,403.625 L15,386.4922" fill="#FFFFFF" style="stroke:#000000;stroke-width:1;"/><rect fill="none" height="279.1328" style="stroke:#000000;stroke-width:1;" width="1263.4111" x="15" y="386.4922"/><text fill="#000000" font-family="Verdana" font-size="13" font-weight="bold" lengthAdjust="spacing" textLength="19.4429" x="30" y="399.5591">alt</text><text fill="#000000" font-family="Verdana" font-size="11" font-weight="bold" lengthAdjust="spacing" textLength="134.2881" x="94.4429" y="398.7026">[Payment Successful]</text><g class="message" data-participant-1="PaymobWebView" data-participant-2="PaymobWebView"><line style="stroke:#000000;stroke-width:1;" x1="677.6025" x2="719.6025" y1="424.7578" y2="424.7578"/><line style="stroke:#000000;stroke-width:1;" x1="719.6025" x2="719.6025" y1="424.7578" y2="437.7578"/><line style="stroke:#000000;stroke-width:1;" x1="678.6025" x2="719.6025" y1="437.7578" y2="437.7578"/><polygon fill="#000000" points="688.6025,433.7578,678.6025,437.7578,688.6025,441.7578,684.6025,437.7578" style="stroke:#000000;stroke-width:1;"/><text fill="#000000" font-family="Verdana" font-size="13" lengthAdjust="spacing" textLength="163.2998" x="684.6025" y="419.6919">User completes payment</text></g><g class="message" data-participant-1="PaymobWebView" data-participant-2="PaymobSuccess"><polygon fill="#000000" points="881.71,493.1563,891.71,497.1563,881.71,501.1563,885.71,497.1563" style="stroke:#000000;stroke-width:1;"/><line style="stroke:#000000;stroke-width:1;" x1="677.6025" x2="887.71" y1="497.1563" y2="497.1563"/><text fill="#000000" font-family="Verdana" font-size="13" lengthAdjust="spacing" textLength="156.5713" x="684.6025" y="461.8247">Redirect to success URL</text><text fill="#000000" font-family="Verdana" font-size="13" lengthAdjust="spacing" textLength="197.1074" x="684.6025" y="476.9575">(antigravity://paymob-success</text><text fill="#000000" font-family="Verdana" font-size="13" lengthAdjust="spacing" textLength="135.2051" x="684.6025" y="492.0903">or /paymob-success)</text></g><g class="message" data-participant-1="PaymobSuccess" data-participant-2="DatabaseService"><polygon fill="#000000" points="1046.3569,522.2891,1056.3569,526.2891,1046.3569,530.2891,1050.3569,526.2891" style="stroke:#000000;stroke-width:1;"/><line style="stroke:#000000;stroke-width:1;" x1="903.71" x2="1052.3569" y1="526.2891" y2="526.2891"/><text fill="#000000" font-family="Verdana" font-size="13" lengthAdjust="spacing" textLength="110.1382" x="910.71" y="521.2231">clearCart(userId)</text></g><g class="message" data-participant-1="PaymobSuccess" data-participant-2="User"><polygon fill="#000000" points="54.9551,551.4219,44.9551,555.4219,54.9551,559.4219,50.9551,555.4219" style="stroke:#000000;stroke-width:1;"/><line style="stroke:#000000;stroke-width:1;stroke-dasharray:2,2;" x1="48.9551" x2="892.71" y1="555.4219" y2="555.4219"/><text fill="#000000" font-family="Verdana" font-size="13" lengthAdjust="spacing" textLength="152.6167" x="60.9551" y="550.356">Show success message</text></g><g class="message" data-participant-1="PaymobSuccess" data-participant-2="HomeScreen"><polygon fill="#000000" points="1194.5195,580.5547,1204.5195,584.5547,1194.5195,588.5547,1198.5195,584.5547" style="stroke:#000000;stroke-width:1;"/><line style="stroke:#000000;stroke-width:1;" x1="898.71" x2="1200.5195" y1="584.5547" y2="584.5547"/><text fill="#000000" font-family="Verdana" font-size="13" lengthAdjust="spacing" textLength="112.6011" x="905.71" y="579.4888">Navigate after 3s</text></g><line style="stroke:#000000;stroke-width:1;stroke-dasharray:2,2;" x1="15" x2="1278.4111" y1="593.5547" y2="593.5547"/><text fill="#000000" font-family="Verdana" font-size="11" font-weight="bold" lengthAdjust="spacing" textLength="106.3638" x="20" y="603.7651">[Payment Failed]</text><g class="message" data-participant-1="PaymobWebView" data-participant-2="PaymobCheckout"><polygon fill="#000000" points="527.7725,624.4922,517.7725,628.4922,527.7725,632.4922,523.7725,628.4922" style="stroke:#000000;stroke-width:1;"/><line style="stroke:#000000;stroke-width:1;stroke-dasharray:2,2;" x1="521.7725" x2="676.6025" y1="628.4922" y2="628.4922"/><text fill="#000000" font-family="Verdana" font-size="13" lengthAdjust="spacing" textLength="89.4321" x="533.7725" y="623.4263">Return failure</text></g><g class="message" data-participant-1="PaymobCheckout" data-participant-2="User"><polygon fill="#000000" points="54.9551,653.625,44.9551,657.625,54.9551,661.625,50.9551,657.625" style="stroke:#000000;stroke-width:1;"/><line style="stroke:#000000;stroke-width:1;stroke-dasharray:2,2;" x1="48.9551" x2="505.7725" y1="657.625" y2="657.625"/><text fill="#000000" font-family="Verdana" font-size="13" lengthAdjust="spacing" textLength="71.1953" x="60.9551" y="652.5591">Show error</text></g><path d="M202,677.625 L202,762.625 L423,762.625 L423,687.625 L413,677.625 L202,677.625" fill="#FFFFFF" style="stroke:#000000;stroke-width:1;"/><path d="M413,677.625 L413,687.625 L423,687.625 L413,677.625" fill="#FFFFFF" style="stroke:#000000;stroke-width:1;"/><text fill="#000000" font-family="Verdana" font-size="13" font-weight="bold" lengthAdjust="spacing" textLength="197.8374" x="208" y="694.6919">Platform-Specific Redirect:</text><text fill="#000000" font-family="Verdana" font-size="13" lengthAdjust="spacing" textLength="121.3608" x="208" y="709.8247">- Mobile: Deep link</text><text fill="#000000" font-family="Verdana" font-size="13" lengthAdjust="spacing" textLength="192.0356" x="216.2646" y="724.9575">antigravity://paymob-success</text><text fill="#000000" font-family="Verdana" font-size="13" lengthAdjust="spacing" textLength="110.9951" x="208" y="740.0903">- Web: URL route</text><text fill="#000000" font-family="Verdana" font-size="13" lengthAdjust="spacing" textLength="112.7026" x="216.2646" y="755.2231">/paymob-success</text><!--SRC=[ZLF1Rjim3BthAxYUag113xtvC618KMnOrnNDibroKMGw5Y9B1YqdoD-FSXodbfssG6049D_Z8_dqnUTO89H6QYkayevWLI69KfBNIfVIUbZm_wKYHDiBlyXZuJPBfBrME99PvAXshlOZgN-u-QlnC4PNAuLLrSiyI2ytii9pAn4Kmlph6s6GmC9ejOERSzSRyIRBjNrDNFyiztehFS91-nmK5qFAZKJOWjw7H3H6nD1njhAOSei-XD3w5Pd9sih2rTRVGirwRu4mrOGgvAQ3BkVP-fJZFRxLFl_ZTcWdqu_hUG7SvJUbI9yflupm4uz3mDWYNz7NPA4ymM3r-YHIl3BUrIMsZc2w9oVJ7fcGvkIE46ZzaTL6G0GTuMgCebnH6lHOdLcl8rlsPgZJiS0xgDeeYrdR2JjIRudDuu_9tLtPuEPjoTho-ubYKsx7ltWXhSyXwinI8hk76ngK5Emy2KxwaKw7CCOrmoQmpDsXarpmHsvnhCrtLs3tUBh783FFBFT1sF28dMQ1fiBk9ezI6qo7Mtt7B1b3QhhekXWY6WI970cqgHYQgdkPmZeEkZt3-dO3cCrUZFIPesA-B57fJAlkjibinXLp-EKsF4023uWb66rt7EM3lNFd1iPp9i4JGAm16qnSnheXQFiF]--></g></svg>