<svg xmlns="http://www.w3.org/2000/svg" xmlns:xlink="http://www.w3.org/1999/xlink" contentStyleType="text/css" data-diagram-type="SEQUENCE" height="527px" preserveAspectRatio="none" style="width:563px;height:527px;background:#FFFFFF;" version="1.1" viewBox="0 0 563 527" width="563px" zoomAndPan="magnify"><defs/><g><g><title>User</title><rect fill="#000000" fill-opacity="0.00000" height="363.8594" width="8" x="24.9551" y="82.2969"/><line style="stroke:#000000;stroke-width:1;stroke-dasharray:5,5;" x1="28" x2="28" y1="82.2969" y2="446.1563"/></g><g><title>Screen</title><rect fill="#000000" fill-opacity="0.00000" height="363.8594" width="8" x="120.29" y="82.2969"/><line style="stroke:#000000;stroke-width:1;stroke-dasharray:5,5;" x1="124.0703" x2="124.0703" y1="82.2969" y2="446.1563"/></g><g><title>Provider</title><rect fill="#000000" fill-opacity="0.00000" height="363.8594" width="8" x="250.6831" y="82.2969"/><line style="stroke:#000000;stroke-width:1;stroke-dasharray:5,5;" x1="254.5859" x2="254.5859" y1="82.2969" y2="446.1563"/></g><g><title>Service</title><rect fill="#000000" fill-opacity="0.00000" height="363.8594" width="8" x="394.4507" y="82.2969"/><line style="stroke:#000000;stroke-width:1;stroke-dasharray:5,5;" x1="397.5801" x2="397.5801" y1="82.2969" y2="446.1563"/></g><g><title>Storage</title><rect fill="#000000" fill-opacity="0.00000" height="363.8594" width="8" x="524.3994" y="82.2969"/><line style="stroke:#000000;stroke-width:1;stroke-dasharray:5,5;" x1="528.0112" x2="528.0112" y1="82.2969" y2="446.1563"/></g><g class="participant participant-head" data-participant="User"><text fill="#000000" font-family="Verdana" font-size="14" lengthAdjust="spacing" textLength="31.9102" x="10" y="78.9951">User</text><ellipse cx="28.9551" cy="14" fill="#FFFFFF" rx="8" ry="8" style="stroke:#000000;stroke-width:1;"/><path d="M28.9551,22 L28.9551,49 M15.9551,30 L41.9551,30 M28.9551,49 L15.9551,64 M28.9551,49 L41.9551,64" fill="none" style="stroke:#000000;stroke-width:1;"/></g><g class="participant participant-tail" data-participant="User"><text fill="#000000" font-family="Verdana" font-size="14" lengthAdjust="spacing" textLength="31.9102" x="10" y="458.1514">User</text><ellipse cx="28.9551" cy="470.4531" fill="#FFFFFF" rx="8" ry="8" style="stroke:#000000;stroke-width:1;"/><path d="M28.9551,478.4531 L28.9551,505.4531 M15.9551,486.4531 L41.9551,486.4531 M28.9551,505.4531 L15.9551,520.4531 M28.9551,505.4531 L41.9551,520.4531" fill="none" style="stroke:#000000;stroke-width:1;"/></g><g class="participant participant-head" data-participant="Screen"><rect fill="#FFFFFF" height="30.2969" rx="2.5" ry="2.5" style="stroke:#000000;stroke-width:1;" width="62.4395" x="93.0703" y="51"/><text fill="#000000" font-family="Verdana" font-size="14" lengthAdjust="spacing" textLength="48.4395" x="100.0703" y="70.9951">Screen</text></g><g class="participant participant-tail" data-participant="Screen"><rect fill="#FFFFFF" height="30.2969" rx="2.5" ry="2.5" style="stroke:#000000;stroke-width:1;" width="62.4395" x="93.0703" y="445.1563"/><text fill="#000000" font-family="Verdana" font-size="14" lengthAdjust="spacing" textLength="48.4395" x="100.0703" y="465.1514">Screen</text></g><g class="participant participant-head" data-participant="Provider"><rect fill="#FFFFFF" height="30.2969" rx="2.5" ry="2.5" style="stroke:#000000;stroke-width:1;" width="72.1943" x="218.5859" y="51"/><text fill="#000000" font-family="Verdana" font-size="14" lengthAdjust="spacing" textLength="58.1943" x="225.5859" y="70.9951">Provider</text></g><g class="participant participant-tail" data-participant="Provider"><rect fill="#FFFFFF" height="30.2969" rx="2.5" ry="2.5" style="stroke:#000000;stroke-width:1;" width="72.1943" x="218.5859" y="445.1563"/><text fill="#000000" font-family="Verdana" font-size="14" lengthAdjust="spacing" textLength="58.1943" x="225.5859" y="465.1514">Provider</text></g><g class="participant participant-head" data-participant="Service"><rect fill="#FFFFFF" height="30.2969" rx="2.5" ry="2.5" style="stroke:#000000;stroke-width:1;" width="65.7412" x="365.5801" y="51"/><text fill="#000000" font-family="Verdana" font-size="14" lengthAdjust="spacing" textLength="51.7412" x="372.5801" y="70.9951">Service</text></g><g class="participant participant-tail" data-participant="Service"><rect fill="#FFFFFF" height="30.2969" rx="2.5" ry="2.5" style="stroke:#000000;stroke-width:1;" width="65.7412" x="365.5801" y="445.1563"/><text fill="#000000" font-family="Verdana" font-size="14" lengthAdjust="spacing" textLength="51.7412" x="372.5801" y="465.1514">Service</text></g><g class="participant participant-head" data-participant="Storage"><text fill="#000000" font-family="Verdana" font-size="14" lengthAdjust="spacing" textLength="54.7764" x="498.0112" y="78.9951">Storage</text><path d="M510.3994,30 C510.3994,20 528.3994,20 528.3994,20 C528.3994,20 546.3994,20 546.3994,30 L546.3994,56 C546.3994,66 528.3994,66 528.3994,66 C528.3994,66 510.3994,66 510.3994,56 L510.3994,30" fill="#FFFFFF" style="stroke:#000000;stroke-width:1;"/><path d="M510.3994,30 C510.3994,40 528.3994,40 528.3994,40 C528.3994,40 546.3994,40 546.3994,30" fill="none" style="stroke:#000000;stroke-width:1;"/></g><g class="participant participant-tail" data-participant="Storage"><text fill="#000000" font-family="Verdana" font-size="14" lengthAdjust="spacing" textLength="54.7764" x="498.0112" y="458.1514">Storage</text><path d="M510.3994,471.4531 C510.3994,461.4531 528.3994,461.4531 528.3994,461.4531 C528.3994,461.4531 546.3994,461.4531 546.3994,471.4531 L546.3994,497.4531 C546.3994,507.4531 528.3994,507.4531 528.3994,507.4531 C528.3994,507.4531 510.3994,507.4531 510.3994,497.4531 L510.3994,471.4531" fill="#FFFFFF" style="stroke:#000000;stroke-width:1;"/><path d="M510.3994,471.4531 C510.3994,481.4531 528.3994,481.4531 528.3994,481.4531 C528.3994,481.4531 546.3994,481.4531 546.3994,471.4531" fill="none" style="stroke:#000000;stroke-width:1;"/></g><g class="message" data-participant-1="User" data-participant-2="Screen"><polygon fill="#000000" points="112.29,109.4297,122.29,113.4297,112.29,117.4297,116.29,113.4297" style="stroke:#000000;stroke-width:1;"/><line style="stroke:#000000;stroke-width:1;" x1="28.9551" x2="118.29" y1="113.4297" y2="113.4297"/><text fill="#000000" font-family="Verdana" font-size="13" lengthAdjust="spacing" textLength="50.7241" x="35.9551" y="108.3638">Interact</text></g><g class="message" data-participant-1="Screen" data-participant-2="Provider"><polygon fill="#000000" points="242.6831,153.6953,252.6831,157.6953,242.6831,161.6953,246.6831,157.6953" style="stroke:#000000;stroke-width:1;"/><line style="stroke:#000000;stroke-width:1;" x1="124.29" x2="248.6831" y1="157.6953" y2="157.6953"/><text fill="#000000" font-family="Verdana" font-size="13" lengthAdjust="spacing" textLength="56.145" x="131.29" y="137.4966">Listen to</text><text fill="#000000" font-family="Verdana" font-size="13" lengthAdjust="spacing" textLength="97.6904" x="131.29" y="152.6294">ChangeNotifier</text></g><g class="message" data-participant-1="Provider" data-participant-2="Service"><polygon fill="#000000" points="386.4507,182.8281,396.4507,186.8281,386.4507,190.8281,390.4507,186.8281" style="stroke:#000000;stroke-width:1;"/><line style="stroke:#000000;stroke-width:1;" x1="254.6831" x2="392.4507" y1="186.8281" y2="186.8281"/><text fill="#000000" font-family="Verdana" font-size="13" lengthAdjust="spacing" textLength="119.7676" x="261.6831" y="181.7622">Call business logic</text></g><g class="message" data-participant-1="Service" data-participant-2="Storage"><polygon fill="#000000" points="516.3994,211.9609,526.3994,215.9609,516.3994,219.9609,520.3994,215.9609" style="stroke:#000000;stroke-width:1;"/><line style="stroke:#000000;stroke-width:1;" x1="398.4507" x2="522.3994" y1="215.9609" y2="215.9609"/><text fill="#000000" font-family="Verdana" font-size="13" lengthAdjust="spacing" textLength="105.9487" x="405.4507" y="210.895">Read/Write data</text></g><g class="message" data-participant-1="Storage" data-participant-2="Service"><polygon fill="#000000" points="409.4507,241.0938,399.4507,245.0938,409.4507,249.0938,405.4507,245.0938" style="stroke:#000000;stroke-width:1;"/><line style="stroke:#000000;stroke-width:1;stroke-dasharray:2,2;" x1="403.4507" x2="527.3994" y1="245.0938" y2="245.0938"/><text fill="#000000" font-family="Verdana" font-size="13" lengthAdjust="spacing" textLength="77.3652" x="415.4507" y="240.0278">Return data</text></g><g class="message" data-participant-1="Service" data-participant-2="Provider"><polygon fill="#000000" points="265.6831,270.2266,255.6831,274.2266,265.6831,278.2266,261.6831,274.2266" style="stroke:#000000;stroke-width:1;"/><line style="stroke:#000000;stroke-width:1;stroke-dasharray:2,2;" x1="259.6831" x2="397.4507" y1="274.2266" y2="274.2266"/><text fill="#000000" font-family="Verdana" font-size="13" lengthAdjust="spacing" textLength="84.1445" x="271.6831" y="269.1606">Update state</text></g><g class="message" data-participant-1="Provider" data-participant-2="Screen"><polygon fill="#000000" points="135.29,299.3594,125.29,303.3594,135.29,307.3594,131.29,303.3594" style="stroke:#000000;stroke-width:1;"/><line style="stroke:#000000;stroke-width:1;stroke-dasharray:2,2;" x1="129.29" x2="253.6831" y1="303.3594" y2="303.3594"/><text fill="#000000" font-family="Verdana" font-size="13" lengthAdjust="spacing" textLength="106.3931" x="141.29" y="298.2935">notifyListeners()</text></g><g class="message" data-participant-1="Screen" data-participant-2="User"><polygon fill="#000000" points="39.9551,328.4922,29.9551,332.4922,39.9551,336.4922,35.9551,332.4922" style="stroke:#000000;stroke-width:1;"/><line style="stroke:#000000;stroke-width:1;stroke-dasharray:2,2;" x1="33.9551" x2="123.29" y1="332.4922" y2="332.4922"/><text fill="#000000" font-family="Verdana" font-size="13" lengthAdjust="spacing" textLength="71.335" x="45.9551" y="327.4263">UI Updates</text></g><path d="M259,345.4922 L259,430.4922 L482,430.4922 L482,355.4922 L472,345.4922 L259,345.4922" fill="#FFFFFF" style="stroke:#000000;stroke-width:1;"/><path d="M472,345.4922 L472,355.4922 L482,355.4922 L472,345.4922" fill="#FFFFFF" style="stroke:#000000;stroke-width:1;"/><text fill="#000000" font-family="Verdana" font-size="13" font-weight="bold" lengthAdjust="spacing" textLength="127.2705" x="265" y="362.5591">Provider Pattern:</text><text fill="#000000" font-family="Verdana" font-size="13" lengthAdjust="spacing" textLength="166.3403" x="265" y="377.6919">- MultiProvider wraps app</text><text fill="#000000" font-family="Verdana" font-size="13" lengthAdjust="spacing" textLength="167.4067" x="265" y="392.8247">- Services injected at root</text><text fill="#000000" font-family="Verdana" font-size="13" lengthAdjust="spacing" textLength="202.4204" x="265" y="407.9575">- Screens use Provider.of&lt;T&gt;()</text><text fill="#000000" font-family="Verdana" font-size="13" lengthAdjust="spacing" textLength="137.8774" x="265" y="423.0903">- No BLoC/Cubit used</text><!--SRC=[NP4zJyD038Rt-nLcWqYbUuKwa0cfL5LBnSBY9cvg5EvEFgU8Vu-l-Q1boU3tqUFNbpizqHT1R96zSrXf4DWd4XTHb2kEw1LsbH3vcz56mfdh_np9cIjoDIeUC17iJ8SDEPULC5iE9bZ0YrSIM-U6YMMZqj8L9xMXXWzVdj0tj0xAHxPr4vHb_JhZIsnRE7I9FQK4RMYuScEQmRw6WLl2Ulukh0Ivf1kJsOrkIzg97uXHSzjm7oqbI6hVgrBN9_hS-QS_XIJTFqot6dLv4DEy3ARadF44mir98Hp_7XYWAAO56rHxDxye2flFuBLhbQVmMp0cm1WlsL0y0VjFgfHgG0K9GVlqKYL1Ptzf53o6uzFRqdfcO1tWUHNAUTaTM3DME_9rFef-0G00]--></g></svg>