<svg xmlns="http://www.w3.org/2000/svg" xmlns:xlink="http://www.w3.org/1999/xlink" contentStyleType="text/css" data-diagram-type="DESCRIPTION" height="1533px" preserveAspectRatio="none" style="width:1391px;height:1533px;background:#F8F9FA;" version="1.1" viewBox="0 0 1391 1533" width="1391px" zoomAndPan="magnify"><title>Food Waste App - Storage Architecture</title><defs/><g><rect fill="#F8F9FA" height="1533" style="stroke:none;stroke-width:1;" width="1391" x="0" y="0"/><g class="title" data-source-line="1"><text fill="#000000" font-family="sans-serif" font-size="14" font-weight="bold" lengthAdjust="spacing" textLength="309.9004" x="533.8081" y="22.9951">Food Waste App - Storage Architecture</text></g><!--cluster Platform Detection--><g class="cluster" data-entity="Platform Detection" data-source-line="15" data-uid="ent0002" id="cluster_Platform Detection"><rect fill="none" height="109" rx="2.5" ry="2.5" style="stroke:#181818;stroke-width:1;" width="165" x="7" y="776.2969"/><text fill="#000000" font-family="sans-serif" font-size="14" font-weight="bold" lengthAdjust="spacing" textLength="149.9531" x="14.5234" y="791.292">Platform Detection</text></g><!--cluster Mobile Platform--><g class="cluster" data-entity="Mobile Platform" data-source-line="20" data-uid="ent0004" id="cluster_Mobile Platform"><path d="M295.5,282.2969 L422.4385,282.2969 A3.75,3.75 0 0 1 424.9385,284.7969 L431.9385,304.5938 L1028.5,304.5938 A2.5,2.5 0 0 1 1031,307.0938 L1031,864.7969 A2.5,2.5 0 0 1 1028.5,867.2969 L295.5,867.2969 A2.5,2.5 0 0 1 293,864.7969 L293,284.7969 A2.5,2.5 0 0 1 295.5,282.2969" fill="none" style="stroke:#000000;stroke-width:1.5;"/><line style="stroke:#000000;stroke-width:1.5;" x1="293" x2="431.9385" y1="304.5938" y2="304.5938"/><text fill="#000000" font-family="sans-serif" font-size="14" font-weight="bold" lengthAdjust="spacing" textLength="125.9385" x="297" y="297.292">Mobile Platform</text></g><!--cluster sqlite--><g class="cluster" data-entity="sqlite" data-source-line="21" data-uid="ent0005" id="cluster_sqlite"><path d="M325,343.2969 C325,333.2969 662,333.2969 662,333.2969 C662,333.2969 999,333.2969 999,343.2969 L999,623.2969 C999,633.2969 662,633.2969 662,633.2969 C662,633.2969 325,633.2969 325,623.2969 L325,343.2969" fill="#E8F5E9" style="stroke:#388E3C;stroke-width:1;"/><path d="M325,343.2969 C325,353.2969 662,353.2969 662,353.2969 C662,353.2969 999,353.2969 999,343.2969" fill="none" style="stroke:#388E3C;stroke-width:1;"/><text fill="#000000" font-family="sans-serif" font-size="14" font-weight="bold" lengthAdjust="spacing" textLength="51.8916" x="636.0542" y="368.292">SQLite</text><text fill="#000000" font-family="sans-serif" font-size="14" font-weight="bold" lengthAdjust="spacing" textLength="120.4629" x="601.7686" y="384.5889">Local Database</text></g><!--cluster Tables--><g class="cluster" data-entity="Tables" data-source-line="22" data-uid="ent0006" id="cluster_Tables"><rect fill="none" height="178" rx="2.5" ry="2.5" style="stroke:#181818;stroke-width:1;" width="610" x="357" y="415.2969"/><path d="M418.6455,415.2969 L418.6455,424.5938 L408.6455,434.5938 L357,434.5938" fill="none" style="stroke:#181818;stroke-width:1;"/><text fill="#000000" font-family="sans-serif" font-size="14" font-weight="bold" lengthAdjust="spacing" textLength="51.6455" x="360" y="429.292">Tables</text></g><!--cluster Local File System--><g class="cluster" data-entity="Local File System" data-source-line="30" data-uid="ent0011" id="cluster_Local File System"><path d="M344,665.2969 L482.8057,665.2969 A3.75,3.75 0 0 1 485.3057,667.7969 L492.3057,687.5938 L519,687.5938 A2.5,2.5 0 0 1 521.5,690.0938 L521.5,840.7969 A2.5,2.5 0 0 1 519,843.2969 L344,843.2969 A2.5,2.5 0 0 1 341.5,840.7969 L341.5,667.7969 A2.5,2.5 0 0 1 344,665.2969" fill="none" style="stroke:#000000;stroke-width:1.5;"/><line style="stroke:#000000;stroke-width:1.5;" x1="341.5" x2="492.3057" y1="687.5938" y2="687.5938"/><text fill="#000000" font-family="sans-serif" font-size="14" font-weight="bold" lengthAdjust="spacing" textLength="137.8057" x="345.5" y="680.292">Local File System</text></g><!--cluster Web Platform--><g class="cluster" data-entity="Web Platform" data-source-line="39" data-uid="ent0015" id="cluster_Web Platform"><path d="M301.5,891.2969 L410.7334,891.2969 A3.75,3.75 0 0 1 413.2334,893.7969 L420.2334,913.5938 L561.5,913.5938 A2.5,2.5 0 0 1 564,916.0938 L564,1468.7969 A2.5,2.5 0 0 1 561.5,1471.2969 L301.5,1471.2969 A2.5,2.5 0 0 1 299,1468.7969 L299,893.7969 A2.5,2.5 0 0 1 301.5,891.2969" fill="none" style="stroke:#000000;stroke-width:1.5;"/><line style="stroke:#000000;stroke-width:1.5;" x1="299" x2="420.2334" y1="913.5938" y2="913.5938"/><text fill="#000000" font-family="sans-serif" font-size="14" font-weight="bold" lengthAdjust="spacing" textLength="108.2334" x="303" y="906.292">Web Platform</text></g><!--cluster webStorage--><g class="cluster" data-entity="webStorage" data-source-line="40" data-uid="ent0016" id="cluster_webStorage"><path d="M331,952.2969 C331,942.2969 431.5,942.2969 431.5,942.2969 C431.5,942.2969 532,942.2969 532,952.2969 L532,1176.2969 C532,1186.2969 431.5,1186.2969 431.5,1186.2969 C431.5,1186.2969 331,1186.2969 331,1176.2969 L331,952.2969" fill="#E8F5E9" style="stroke:#388E3C;stroke-width:1;"/><path d="M331,952.2969 C331,962.2969 431.5,962.2969 431.5,962.2969 C431.5,962.2969 532,962.2969 532,952.2969" fill="none" style="stroke:#388E3C;stroke-width:1;"/><text fill="#000000" font-family="sans-serif" font-size="14" font-weight="bold" lengthAdjust="spacing" textLength="155.7705" x="353.6147" y="977.292">SharedPreferences/</text><text fill="#000000" font-family="sans-serif" font-size="14" font-weight="bold" lengthAdjust="spacing" textLength="103.3457" x="379.8271" y="993.5889">LocalStorage</text></g><!--cluster firebaseStorage--><g class="cluster" data-entity="firebaseStorage" data-source-line="45" data-uid="ent0019" id="cluster_firebaseStorage"><path d="M359.6701,1236.9289 C362.9432,1229.6374 367.1101,1228.8365 373.116,1233.9721 C377.8374,1227.0249 384.8348,1227.2181 389.0029,1234.5862 C391.638,1227.0204 397.4196,1226.116 402.313,1232.419 C407.1201,1224.7233 412.8981,1222.9238 419.5206,1230.3537 C423.1271,1223.8508 428.9502,1225.464 432.1221,1230.8156 C437.2308,1223.5392 442.1973,1224.3014 447.6134,1230.4612 C453.0162,1223.5041 460.5501,1225.3137 462.8813,1233.5482 C466.6272,1227.0649 471.2527,1227.5022 475.3876,1233.147 C480.323,1227.2501 485.2159,1225.7658 490.0345,1233.2745 C500.1067,1226.6024 509.0492,1227.5764 511.5,1241.2969 C512.673,1242.0023 512.7698,1242.7498 511.8016,1243.7215 C518.3431,1247.1126 520.0858,1251.422 513.785,1256.7658 C522.5096,1261.0897 523.1403,1266.0975 515.6242,1272.3394 C524.3208,1277.3833 523.0411,1283.7094 515.3987,1288.5258 C524.2621,1291.8327 525.8305,1298.8328 517.9304,1304.7548 C525.3238,1309.3039 524.9324,1316.3689 516.7515,1319.6887 C524.7714,1322.8779 526.349,1328.5491 519.2985,1334.3554 C525.5948,1338.9527 525.2292,1345.1258 517.6815,1348.0937 C525.127,1354.3141 523.1235,1360.0975 515.7532,1364.5856 C522.935,1368.2548 523.7939,1373.835 517.2323,1378.9222 C524.0602,1383.9779 523.6878,1390.2335 516.2153,1394.3464 C523.4168,1399.9245 522.1132,1406.2083 514.7158,1410.4248 C521.9363,1421.9465 519.1199,1430.465 504.5,1431.2969 C505.1912,1431.3118 505.6089,1431.7056 505.2955,1432.4274 C502.6558,1439.9909 496.3087,1439.8362 491.5337,1434.7505 C487.5338,1441.2668 481.1406,1441.6461 477.077,1434.8195 C473.7433,1441.5456 466.3779,1443.4828 461.7383,1436.2549 C456.9688,1443.9623 452.0708,1443.5305 446.5206,1437.0949 C442.823,1444.0658 438.1213,1446.2888 431.994,1439.6974 C426.2329,1445.357 422.1453,1444.8936 418.9479,1437.1938 C415.3563,1444.0562 408.7283,1444.215 404.8189,1437.5251 C398.1152,1444.7142 393.0769,1443.0366 388.0338,1435.617 C383.07,1442.4724 376.5334,1440.4369 373.7757,1433.3593 C362.0112,1440.8382 354.4464,1438.4933 351.5,1424.2969 C352.7552,1424.7618 353.2299,1425.4282 352.3699,1426.6689 C344.1677,1421.6296 344.0921,1414.9956 352.5954,1410.1848 C345.0764,1406.117 344.7931,1399.9644 352.11,1395.4092 C344.6444,1389.7574 344.4854,1384.5806 352.1351,1378.9518 C343.6553,1375.3205 343.4567,1369.9142 350.1033,1364.1996 C342.8167,1359.3022 344.3157,1354.8818 350.3413,1350.2107 C342.0257,1345.8804 342.391,1339.362 349.1334,1333.9155 C342.2869,1328.0564 343.0312,1321.5683 351.4476,1317.9169 C344.624,1312.963 343.7882,1306.9702 352.0955,1302.6588 C344.014,1299.2283 343.8967,1292.5228 351.1731,1288.118 C344.0363,1282.5983 345.6621,1278.2411 352.0394,1273.5236 C345.0932,1267.6761 344.9653,1261.8042 353.2392,1257.0663 C342.5211,1246.7145 347.2081,1239.5632 358.5,1234.2969 C360.2892,1234.465 360.5403,1235.5785 359.6701,1236.9289" fill="none" style="stroke:#181818;stroke-width:1;"/><text fill="#000000" font-family="sans-serif" font-size="14" font-weight="bold" lengthAdjust="spacing" textLength="135.1943" x="363.9028" y="1252.292">Firebase Storage</text></g><!--cluster Cloud Services--><g class="cluster" data-entity="Cloud Services" data-source-line="54" data-uid="ent0023" id="cluster_Cloud Services"><path d="M775.6348,997.8602 C784.2329,980.8924 798.4268,978.1407 812.115,991.7968 C822.5433,971.3723 841.6755,973.1811 853.543,990.2048 C866.6695,968.9154 888.6497,974.0683 898.1489,994.1186 C912.129,972.6547 925.7419,973.4343 940.2774,993.556 C951.5055,973.2097 964.633,976.7874 977.6155,991.6981 C989.927,971.3615 1003.3338,965.7946 1021.7491,984.8616 C1033.9387,967.857 1050.5179,967.0305 1062.52,985.0796 C1071.6148,969.5848 1087.8535,966.0174 1097.1516,984.8746 C1111.076,965.301 1130.5094,965.4718 1139.5613,989.6028 C1152.8188,971.9755 1166.1661,968.2425 1180.7889,988.1012 C1192.4392,967.6163 1211.5531,972.5479 1222.0062,989.4219 C1237.5162,973.9094 1254.5372,976.737 1264.1192,996.4991 C1277.3203,975.2661 1292.0946,976.223 1306.7035,995.0008 C1319.3251,975.937 1338.4538,980.1351 1347,999.2969 C1348.1746,997.7685 1349.5952,997.5244 1350.6443,999.43 C1367.6863,1014.3151 1370.3446,1029.0251 1349.5271,1042.938 C1368.428,1052.7453 1369.5896,1073.3721 1351.5601,1084.9659 C1371.9371,1095.2149 1379.2108,1110.8123 1358.3455,1127.6218 C1378.4215,1138.7834 1377.743,1157.6766 1357.2744,1167.7562 C1377.5738,1175.5447 1382.2529,1191.6451 1363.574,1205.8751 C1384.5166,1218.834 1381.3325,1232.3351 1364.0534,1245.7535 C1381.4733,1257.2842 1383.745,1274.7084 1363.0629,1285.2845 C1384.3423,1298.0949 1382.1246,1316.7276 1360.1832,1326.5197 C1377.1472,1340.8347 1378.9811,1356.5917 1356.8721,1367.7703 C1378.9967,1379.5614 1373.6544,1400.8371 1355.5993,1411.4576 C1377.9823,1424.7104 1374.1311,1440.1225 1355.8106,1453.5794 C1371.543,1474.2268 1363.0694,1488.7162 1340,1494.2969 C1345.0449,1492.2375 1347.6651,1495.3988 1347.0157,1500.1568 C1330.9193,1517.4536 1315.8083,1518.7255 1301.8283,1497.6635 C1291.5636,1515.2155 1275.4575,1515.7389 1265.8576,1497.0045 C1253.3613,1521.0115 1236.8084,1526.5004 1218.8047,1502.3901 C1208.1818,1521.5232 1192.5559,1520.0788 1182.0921,1502.2322 C1165.1145,1523.944 1149.4461,1519.5466 1139.0295,1495.9908 C1126.4688,1516.6796 1111.7529,1516.5543 1098.4822,1496.7009 C1088.2529,1513.5697 1070.4018,1513.1645 1059.6914,1497.2705 C1049.1591,1518.5633 1028.4705,1517.5887 1015.2959,1500.3119 C1002.3267,1518.7777 990.3442,1514.4762 980.0956,1497.602 C971.124,1517.9292 951.0544,1523.0993 938.2662,1501.4008 C923.96,1517.1449 907.1555,1516.2554 896.8084,1496.745 C886.5735,1520.7863 868.741,1518.7398 853.6239,1501.9027 C840.9107,1519.4794 824.8048,1517.8726 813.7962,1499.9882 C790.8833,1519.4794 774.6234,1516.0251 764,1487.2969 C766.6351,1484.5332 770.0172,1484.7675 771.4691,1488.6305 C750.6359,1479.6225 749.8678,1465.3054 764.2192,1449.7386 C743.1329,1436.0167 744.4489,1418.8572 765.5067,1406.3869 C747.6348,1395.7109 752.4367,1378.1731 768.7584,1370.6044 C744.3929,1361.5902 743.5918,1344.9382 761.7468,1328.7935 C742.4295,1318.5022 742.2534,1299.9337 762.2497,1290.1541 C745.2963,1278.8756 747.9733,1259.8755 764.5065,1250.5028 C746.8029,1239.0828 743.2175,1222.4895 763.3279,1209.97 C741.8874,1197.5196 741.0926,1179.6617 762.6198,1166.5112 C740.1455,1151.6278 741.2381,1135.3831 763.679,1121.5581 C744.4236,1108.0531 746.37,1094.1195 765.5069,1082.407 C746.3346,1069.847 747.4447,1058.0108 766.6485,1046.6768 C744.3148,1027.2702 741.8331,1007.5824 771,992.2969 C774.925,992.1357 776.5663,993.9754 775.6348,997.8602" fill="none" style="stroke:#181818;stroke-width:1;"/><text fill="#000000" font-family="sans-serif" font-size="14" font-weight="bold" lengthAdjust="spacing" textLength="116.0879" x="997.4561" y="1010.292">Cloud Services</text></g><!--cluster firestore--><g class="cluster" data-entity="firestore" data-source-line="55" data-uid="ent0024" id="cluster_firestore"><path d="M788,1099.2969 C788,1089.2969 1055.5,1089.2969 1055.5,1089.2969 C1055.5,1089.2969 1323,1089.2969 1323,1099.2969 L1323,1460.2969 C1323,1470.2969 1055.5,1470.2969 1055.5,1470.2969 C1055.5,1470.2969 788,1470.2969 788,1460.2969 L788,1099.2969" fill="#E8F5E9" style="stroke:#388E3C;stroke-width:1;"/><path d="M788,1099.2969 C788,1109.2969 1055.5,1109.2969 1055.5,1109.2969 C1055.5,1109.2969 1323,1109.2969 1323,1099.2969" fill="none" style="stroke:#388E3C;stroke-width:1;"/><text fill="#000000" font-family="sans-serif" font-size="14" font-weight="bold" lengthAdjust="spacing" textLength="71.8047" x="1019.5977" y="1124.292">Firestore</text><text fill="#000000" font-family="sans-serif" font-size="14" font-weight="bold" lengthAdjust="spacing" textLength="141.4082" x="984.7959" y="1140.5889">Primary Database</text></g><!--cluster Collections--><g class="cluster" data-entity="Collections" data-source-line="56" data-uid="ent0025" id="cluster_Collections"><rect fill="none" height="259" rx="2.5" ry="2.5" style="stroke:#181818;stroke-width:1;" width="471" x="820" y="1179.2969"/><path d="M916.6934,1179.2969 L916.6934,1188.5938 L906.6934,1198.5938 L820,1198.5938" fill="none" style="stroke:#181818;stroke-width:1;"/><text fill="#000000" font-family="sans-serif" font-size="14" font-weight="bold" lengthAdjust="spacing" textLength="86.6934" x="823" y="1193.292">Collections</text></g><!--entity platformCheck--><g class="entity" data-entity="platformCheck" data-source-line="16" data-uid="ent0003" id="entity_platformCheck"><ellipse cx="89" cy="840.2969" fill="#F1F1F1" rx="8" ry="8" style="stroke:#181818;stroke-width:0.5;"/><text fill="#000000" font-family="sans-serif" font-size="14" lengthAdjust="spacing" textLength="50.873" x="63.5635" y="870.292">kIsWeb</text></g><!--entity users--><g class="entity" data-entity="users" data-source-line="23" data-uid="ent0007" id="entity_users"><rect fill="#E3F2FD" height="46.2969" rx="2.5" ry="2.5" style="stroke:#1976D2;stroke-width:0.5;" width="77.8301" x="392.5" y="531.2969"/><rect fill="#E3F2FD" height="10" style="stroke:#1976D2;stroke-width:0.5;" width="15" x="450.3301" y="536.2969"/><rect fill="#E3F2FD" height="2" style="stroke:#1976D2;stroke-width:0.5;" width="4" x="448.3301" y="538.2969"/><rect fill="#E3F2FD" height="2" style="stroke:#1976D2;stroke-width:0.5;" width="4" x="448.3301" y="542.2969"/><text fill="#000000" font-family="sans-serif" font-size="14" lengthAdjust="spacing" textLength="37.8301" x="407.5" y="564.292">users</text></g><!--entity food_items--><g class="entity" data-entity="food_items" data-source-line="24" data-uid="ent0008" id="entity_food_items"><rect fill="#E3F2FD" height="46.2969" rx="2.5" ry="2.5" style="stroke:#1976D2;stroke-width:0.5;" width="116.8701" x="373" y="450.2969"/><rect fill="#E3F2FD" height="10" style="stroke:#1976D2;stroke-width:0.5;" width="15" x="469.8701" y="455.2969"/><rect fill="#E3F2FD" height="2" style="stroke:#1976D2;stroke-width:0.5;" width="4" x="467.8701" y="457.2969"/><rect fill="#E3F2FD" height="2" style="stroke:#1976D2;stroke-width:0.5;" width="4" x="467.8701" y="461.2969"/><text fill="#000000" font-family="sans-serif" font-size="14" lengthAdjust="spacing" textLength="76.8701" x="388" y="483.292">food_items</text></g><!--entity cart--><g class="entity" data-entity="cart" data-source-line="25" data-uid="ent0009" id="entity_cart"><rect fill="#E3F2FD" height="46.2969" rx="2.5" ry="2.5" style="stroke:#1976D2;stroke-width:0.5;" width="67.5215" x="866.5" y="531.2969"/><rect fill="#E3F2FD" height="10" style="stroke:#1976D2;stroke-width:0.5;" width="15" x="914.0215" y="536.2969"/><rect fill="#E3F2FD" height="2" style="stroke:#1976D2;stroke-width:0.5;" width="4" x="912.0215" y="538.2969"/><rect fill="#E3F2FD" height="2" style="stroke:#1976D2;stroke-width:0.5;" width="4" x="912.0215" y="542.2969"/><text fill="#000000" font-family="sans-serif" font-size="14" lengthAdjust="spacing" textLength="27.5215" x="881.5" y="564.292">cart</text></g><!--entity favorites--><g class="entity" data-entity="favorites" data-source-line="26" data-uid="ent0010" id="entity_favorites"><rect fill="#E3F2FD" height="46.2969" rx="2.5" ry="2.5" style="stroke:#1976D2;stroke-width:0.5;" width="101.4004" x="850" y="450.2969"/><rect fill="#E3F2FD" height="10" style="stroke:#1976D2;stroke-width:0.5;" width="15" x="931.4004" y="455.2969"/><rect fill="#E3F2FD" height="2" style="stroke:#1976D2;stroke-width:0.5;" width="4" x="929.4004" y="457.2969"/><rect fill="#E3F2FD" height="2" style="stroke:#1976D2;stroke-width:0.5;" width="4" x="929.4004" y="461.2969"/><text fill="#000000" font-family="sans-serif" font-size="14" lengthAdjust="spacing" textLength="61.4004" x="865" y="483.292">favorites</text></g><!--entity profile_images--><g class="entity" data-entity="profile_images" data-source-line="31" data-uid="ent0012" id="entity_profile_images"><rect fill="#E3F2FD" height="46.2969" rx="2.5" ry="2.5" style="stroke:#1976D2;stroke-width:0.5;" width="142.4297" x="360.5" y="700.2969"/><rect fill="#E3F2FD" height="10" style="stroke:#1976D2;stroke-width:0.5;" width="15" x="482.9297" y="705.2969"/><rect fill="#E3F2FD" height="2" style="stroke:#1976D2;stroke-width:0.5;" width="4" x="480.9297" y="707.2969"/><rect fill="#E3F2FD" height="2" style="stroke:#1976D2;stroke-width:0.5;" width="4" x="480.9297" y="711.2969"/><text fill="#000000" font-family="sans-serif" font-size="14" lengthAdjust="spacing" textLength="102.4297" x="375.5" y="733.292">profile_images</text></g><!--entity cached_images--><g class="entity" data-entity="cached_images" data-source-line="32" data-uid="ent0013" id="entity_cached_images"><rect fill="#E3F2FD" height="46.2969" rx="2.5" ry="2.5" style="stroke:#1976D2;stroke-width:0.5;" width="148.2471" x="357.5" y="781.2969"/><rect fill="#E3F2FD" height="10" style="stroke:#1976D2;stroke-width:0.5;" width="15" x="485.7471" y="786.2969"/><rect fill="#E3F2FD" height="2" style="stroke:#1976D2;stroke-width:0.5;" width="4" x="483.7471" y="788.2969"/><rect fill="#E3F2FD" height="2" style="stroke:#1976D2;stroke-width:0.5;" width="4" x="483.7471" y="792.2969"/><text fill="#000000" font-family="sans-serif" font-size="14" lengthAdjust="spacing" textLength="108.2471" x="372.5" y="814.292">cached_images</text></g><!--entity key_value_store--><g class="entity" data-entity="key_value_store" data-source-line="41" data-uid="ent0017" id="entity_key_value_store"><rect fill="#E3F2FD" height="46.2969" rx="2.5" ry="2.5" style="stroke:#1976D2;stroke-width:0.5;" width="152.9639" x="355" y="1016.2969"/><rect fill="#E3F2FD" height="10" style="stroke:#1976D2;stroke-width:0.5;" width="15" x="487.9639" y="1021.2969"/><rect fill="#E3F2FD" height="2" style="stroke:#1976D2;stroke-width:0.5;" width="4" x="485.9639" y="1023.2969"/><rect fill="#E3F2FD" height="2" style="stroke:#1976D2;stroke-width:0.5;" width="4" x="485.9639" y="1027.2969"/><text fill="#000000" font-family="sans-serif" font-size="14" lengthAdjust="spacing" textLength="112.9639" x="370" y="1049.292">key_value_store</text></g><!--entity json_data--><g class="entity" data-entity="json_data" data-source-line="42" data-uid="ent0018" id="entity_json_data"><rect fill="#E3F2FD" height="46.2969" rx="2.5" ry="2.5" style="stroke:#1976D2;stroke-width:0.5;" width="107.1563" x="378" y="1097.2969"/><rect fill="#E3F2FD" height="10" style="stroke:#1976D2;stroke-width:0.5;" width="15" x="465.1563" y="1102.2969"/><rect fill="#E3F2FD" height="2" style="stroke:#1976D2;stroke-width:0.5;" width="4" x="463.1563" y="1104.2969"/><rect fill="#E3F2FD" height="2" style="stroke:#1976D2;stroke-width:0.5;" width="4" x="463.1563" y="1108.2969"/><text fill="#000000" font-family="sans-serif" font-size="14" lengthAdjust="spacing" textLength="67.1563" x="393" y="1130.292">json_data</text></g><!--entity user_images--><g class="entity" data-entity="user_images" data-source-line="46" data-uid="ent0020" id="entity_user_images"><rect fill="#E3F2FD" height="46.2969" rx="2.5" ry="2.5" style="stroke:#1976D2;stroke-width:0.5;" width="128.4365" x="367.5" y="1269.2969"/><rect fill="#E3F2FD" height="10" style="stroke:#1976D2;stroke-width:0.5;" width="15" x="475.9365" y="1274.2969"/><rect fill="#E3F2FD" height="2" style="stroke:#1976D2;stroke-width:0.5;" width="4" x="473.9365" y="1276.2969"/><rect fill="#E3F2FD" height="2" style="stroke:#1976D2;stroke-width:0.5;" width="4" x="473.9365" y="1280.2969"/><text fill="#000000" font-family="sans-serif" font-size="14" lengthAdjust="spacing" textLength="88.4365" x="382.5" y="1302.292">user_images</text></g><!--entity app_assets--><g class="entity" data-entity="app_assets" data-source-line="47" data-uid="ent0021" id="entity_app_assets"><rect fill="#E3F2FD" height="46.2969" rx="2.5" ry="2.5" style="stroke:#1976D2;stroke-width:0.5;" width="117.916" x="372.5" y="1350.2969"/><rect fill="#E3F2FD" height="10" style="stroke:#1976D2;stroke-width:0.5;" width="15" x="470.416" y="1355.2969"/><rect fill="#E3F2FD" height="2" style="stroke:#1976D2;stroke-width:0.5;" width="4" x="468.416" y="1357.2969"/><rect fill="#E3F2FD" height="2" style="stroke:#1976D2;stroke-width:0.5;" width="4" x="468.416" y="1361.2969"/><text fill="#000000" font-family="sans-serif" font-size="14" lengthAdjust="spacing" textLength="77.916" x="387.5" y="1383.292">app_assets</text></g><!--entity auth--><g class="entity" data-entity="auth" data-source-line="65" data-uid="ent0031" id="entity_auth"><rect fill="#E3F2FD" height="46.2969" rx="2.5" ry="2.5" style="stroke:#1976D2;stroke-width:0.5;" width="136.9473" x="1143" y="1019.2969"/><rect fill="#E3F2FD" height="10" style="stroke:#1976D2;stroke-width:0.5;" width="15" x="1259.9473" y="1024.2969"/><rect fill="#E3F2FD" height="2" style="stroke:#1976D2;stroke-width:0.5;" width="4" x="1257.9473" y="1026.2969"/><rect fill="#E3F2FD" height="2" style="stroke:#1976D2;stroke-width:0.5;" width="4" x="1257.9473" y="1030.2969"/><text fill="#000000" font-family="sans-serif" font-size="14" lengthAdjust="spacing" textLength="96.9473" x="1158" y="1052.292">Firebase Auth</text></g><!--entity restaurants--><g class="entity" data-entity="restaurants" data-source-line="57" data-uid="ent0026" id="entity_restaurants"><rect fill="#E3F2FD" height="46.2969" rx="2.5" ry="2.5" style="stroke:#1976D2;stroke-width:0.5;" width="120.5957" x="840" y="1376.2969"/><rect fill="#E3F2FD" height="10" style="stroke:#1976D2;stroke-width:0.5;" width="15" x="940.5957" y="1381.2969"/><rect fill="#E3F2FD" height="2" style="stroke:#1976D2;stroke-width:0.5;" width="4" x="938.5957" y="1383.2969"/><rect fill="#E3F2FD" height="2" style="stroke:#1976D2;stroke-width:0.5;" width="4" x="938.5957" y="1387.2969"/><text fill="#000000" font-family="sans-serif" font-size="14" lengthAdjust="spacing" textLength="80.5957" x="855" y="1409.292">restaurants</text></g><!--entity charities--><g class="entity" data-entity="charities" data-source-line="58" data-uid="ent0027" id="entity_charities"><rect fill="#E3F2FD" height="46.2969" rx="2.5" ry="2.5" style="stroke:#1976D2;stroke-width:0.5;" width="100.0811" x="850.5" y="1295.2969"/><rect fill="#E3F2FD" height="10" style="stroke:#1976D2;stroke-width:0.5;" width="15" x="930.5811" y="1300.2969"/><rect fill="#E3F2FD" height="2" style="stroke:#1976D2;stroke-width:0.5;" width="4" x="928.5811" y="1302.2969"/><rect fill="#E3F2FD" height="2" style="stroke:#1976D2;stroke-width:0.5;" width="4" x="928.5811" y="1306.2969"/><text fill="#000000" font-family="sans-serif" font-size="14" lengthAdjust="spacing" textLength="60.0811" x="865.5" y="1328.292">charities</text></g><!--entity user_profiles--><g class="entity" data-entity="user_profiles" data-source-line="59" data-uid="ent0028" id="entity_user_profiles"><rect fill="#E3F2FD" height="46.2969" rx="2.5" ry="2.5" style="stroke:#1976D2;stroke-width:0.5;" width="129.3594" x="836" y="1214.2969"/><rect fill="#E3F2FD" height="10" style="stroke:#1976D2;stroke-width:0.5;" width="15" x="945.3594" y="1219.2969"/><rect fill="#E3F2FD" height="2" style="stroke:#1976D2;stroke-width:0.5;" width="4" x="943.3594" y="1221.2969"/><rect fill="#E3F2FD" height="2" style="stroke:#1976D2;stroke-width:0.5;" width="4" x="943.3594" y="1225.2969"/><text fill="#000000" font-family="sans-serif" font-size="14" lengthAdjust="spacing" textLength="89.3594" x="851" y="1247.292">user_profiles</text></g><!--entity orders--><g class="entity" data-entity="orders" data-source-line="60" data-uid="ent0029" id="entity_orders"><rect fill="#E3F2FD" height="46.2969" rx="2.5" ry="2.5" style="stroke:#1976D2;stroke-width:0.5;" width="84.8711" x="1169" y="1376.2969"/><rect fill="#E3F2FD" height="10" style="stroke:#1976D2;stroke-width:0.5;" width="15" x="1233.8711" y="1381.2969"/><rect fill="#E3F2FD" height="2" style="stroke:#1976D2;stroke-width:0.5;" width="4" x="1231.8711" y="1383.2969"/><rect fill="#E3F2FD" height="2" style="stroke:#1976D2;stroke-width:0.5;" width="4" x="1231.8711" y="1387.2969"/><text fill="#000000" font-family="sans-serif" font-size="14" lengthAdjust="spacing" textLength="44.8711" x="1184" y="1409.292">orders</text></g><!--entity food_listings--><g class="entity" data-entity="food_listings" data-source-line="61" data-uid="ent0030" id="entity_food_listings"><rect fill="#E3F2FD" height="46.2969" rx="2.5" ry="2.5" style="stroke:#1976D2;stroke-width:0.5;" width="127.4521" x="1148" y="1295.2969"/><rect fill="#E3F2FD" height="10" style="stroke:#1976D2;stroke-width:0.5;" width="15" x="1255.4521" y="1300.2969"/><rect fill="#E3F2FD" height="2" style="stroke:#1976D2;stroke-width:0.5;" width="4" x="1253.4521" y="1302.2969"/><rect fill="#E3F2FD" height="2" style="stroke:#1976D2;stroke-width:0.5;" width="4" x="1253.4521" y="1306.2969"/><text fill="#000000" font-family="sans-serif" font-size="14" lengthAdjust="spacing" textLength="87.4521" x="1163" y="1328.292">food_listings</text></g><g class="entity" data-entity="GMN38" data-source-line="81" data-uid="ent0039" id="entity_GMN38"><path d="M348.5,164.7969 L348.5,265.5938 L514.8423,265.5938 L514.8423,174.7969 L504.8423,164.7969 L348.5,164.7969" fill="#FEFFDD" style="stroke:#181818;stroke-width:0.5;"/><path d="M504.8423,164.7969 L504.8423,174.7969 L514.8423,174.7969 L504.8423,164.7969" fill="#FEFFDD" style="stroke:#181818;stroke-width:1;"/><text fill="#000000" font-family="sans-serif" font-size="13" font-weight="bold" lengthAdjust="spacing" textLength="145.3423" x="354.5" y="181.8638">Mobile Advantages:</text><text fill="#000000" font-family="sans-serif" font-size="13" lengthAdjust="spacing" textLength="118.644" x="354.5" y="196.9966">&#8226; Full SQL support</text><text fill="#000000" font-family="sans-serif" font-size="13" lengthAdjust="spacing" textLength="127.918" x="354.5" y="212.1294">&#8226; Unlimited storage</text><text fill="#000000" font-family="sans-serif" font-size="13" lengthAdjust="spacing" textLength="125.8867" x="354.5" y="227.2622">&#8226; Fast local queries</text><text fill="#000000" font-family="sans-serif" font-size="13" lengthAdjust="spacing" textLength="96.9541" x="354.5" y="242.395">&#8226; Works offline</text><text fill="#000000" font-family="sans-serif" font-size="13" lengthAdjust="spacing" textLength="122.8779" x="354.5" y="257.5278">&#8226; Direct file access</text></g><g class="entity" data-entity="GMN41" data-source-line="90" data-uid="ent0042" id="entity_GMN41"><path d="M352.5,43.2969 L352.5,128.9609 L510.7871,128.9609 L510.7871,53.2969 L500.7871,43.2969 L352.5,43.2969" fill="#FEFFDD" style="stroke:#181818;stroke-width:0.5;"/><path d="M500.7871,43.2969 L500.7871,53.2969 L510.7871,53.2969 L500.7871,43.2969" fill="#FEFFDD" style="stroke:#181818;stroke-width:1;"/><text fill="#000000" font-family="sans-serif" font-size="13" font-weight="bold" lengthAdjust="spacing" textLength="124.5093" x="358.5" y="60.3638">Web Limitations:</text><text fill="#000000" font-family="sans-serif" font-size="13" lengthAdjust="spacing" textLength="137.2871" x="358.5" y="75.4966">&#8226; No SQL (JSON only)</text><text fill="#000000" font-family="sans-serif" font-size="13" lengthAdjust="spacing" textLength="134.7227" x="358.5" y="90.6294">&#8226; 10MB storage limit</text><text fill="#000000" font-family="sans-serif" font-size="13" lengthAdjust="spacing" textLength="128.7622" x="358.5" y="105.7622">&#8226; Async storage API</text><text fill="#000000" font-family="sans-serif" font-size="13" lengthAdjust="spacing" textLength="134.8242" x="358.5" y="120.895">&#8226; Images in Firebase</text></g><g class="entity" data-entity="GMN44" data-source-line="98" data-uid="ent0045" id="entity_GMN44"><path d="M819,180.2969 L819,265.9609 L981.8638,265.9609 L981.8638,190.2969 L971.8638,180.2969 L819,180.2969" fill="#FEFFDD" style="stroke:#181818;stroke-width:0.5;"/><path d="M971.8638,180.2969 L971.8638,190.2969 L981.8638,190.2969 L971.8638,180.2969" fill="#FEFFDD" style="stroke:#181818;stroke-width:1;"/><text fill="#000000" font-family="sans-serif" font-size="13" font-weight="bold" lengthAdjust="spacing" textLength="116.1177" x="825" y="197.3638">Cloud Features:</text><text fill="#000000" font-family="sans-serif" font-size="13" lengthAdjust="spacing" textLength="131.1807" x="825" y="212.4966">&#8226; Real-time updates</text><text fill="#000000" font-family="sans-serif" font-size="13" lengthAdjust="spacing" textLength="66.606" x="825" y="227.6294">&#8226; Scalable</text><text fill="#000000" font-family="sans-serif" font-size="13" lengthAdjust="spacing" textLength="140.0674" x="825" y="242.7622">&#8226; User authentication</text><text fill="#000000" font-family="sans-serif" font-size="13" lengthAdjust="spacing" textLength="141.8638" x="825" y="257.895">&#8226; Cross-platform sync</text></g><!--link sqlite to profile_images--><g class="link" data-entity-1="sqlite" data-entity-2="profile_images" data-source-line="35" data-uid="lnk14" id="link_sqlite_profile_images"><path d="M431.5,633.4989 C431.5,633.6424 431.5,633.7875 431.5,633.9342 C431.5,634.521 431.5,635.1326 431.5,635.7677 C431.5,640.8478 431.5,647.4225 431.5,654.6856 C431.5,669.2119 431.5,686.4919 431.5,700.0769" fill="none" id="sqlite-profile_images" style="stroke:#181818;stroke-width:1;"/><text fill="#000000" font-family="sans-serif" font-size="13" lengthAdjust="spacing" textLength="73.106" x="383.5" y="667.5438">References</text></g><!--link webStorage to user_images--><g class="link" data-entity-1="webStorage" data-entity-2="user_images" data-source-line="50" data-uid="lnk22" id="link_webStorage_user_images"><path d="M431.5,1186.5115 C431.5,1186.6744 431.5,1186.8394 431.5,1187.0064 C431.5,1188.3426 431.5,1189.8096 431.5,1191.3909 C431.5,1197.7163 431.5,1205.8706 431.5,1214.7994 C431.5,1232.6569 431.5,1253.6119 431.5,1269.2269" fill="none" id="webStorage-user_images" style="stroke:#181818;stroke-width:1;"/><text fill="#000000" font-family="sans-serif" font-size="13" lengthAdjust="spacing" textLength="61.5596" x="389.5" y="1228.5438">Metadata</text></g><!--link platformCheck to sqlite--><g class="link" data-entity-1="platformCheck" data-entity-2="sqlite" data-source-line="69" data-uid="lnk32" id="link_platformCheck_sqlite"><path d="M98.27,832.1769 C124.01,807.2569 205.7,730.7569 285,684.2969 C314.635,666.9369 350.345,652.3719 378.9712,642.0569 C386.1278,639.4781 392.8416,637.165 398.9071,635.1402 C400.4235,634.634 401.8994,634.1459 403.3315,633.6761 C403.6895,633.5586 398.3413,635.3053 398.6939,635.1902" fill="none" id="platformCheck-to-sqlite" style="stroke:#181818;stroke-width:1;"/><polygon fill="#181818" points="404.3973,633.3272,394.6001,632.3194,399.6444,634.8797,397.0841,639.924,404.3973,633.3272" style="stroke:#181818;stroke-width:1;"/><text fill="#000000" font-family="sans-serif" font-size="13" lengthAdjust="spacing" textLength="87.8452" x="189" y="687.3638">false (Mobile)</text></g><!--link platformCheck to webStorage--><g class="link" data-entity-1="platformCheck" data-entity-2="webStorage" data-source-line="70" data-uid="lnk33" id="link_platformCheck_webStorage"><path d="M92.42,849.4069 C104.45,892.7869 162.24,1079.5769 285,1159.2969 C298.46,1168.0394 314.1069,1173.6294 330.0491,1177.0891 C330.2982,1177.1431 324.6787,1175.9482 324.9279,1176.0012" fill="none" id="platformCheck-to-webStorage" style="stroke:#181818;stroke-width:1;"/><polygon fill="#181818" points="330.7966,1177.2497,322.8259,1171.4645,325.906,1176.2093,321.1612,1179.2894,330.7966,1177.2497" style="stroke:#181818;stroke-width:1;"/><text fill="#000000" font-family="sans-serif" font-size="13" lengthAdjust="spacing" textLength="70.0591" x="197.5" y="1063.3638">true (Web)</text></g><!--link sqlite to firestore--><g class="link" data-entity-1="sqlite" data-entity-2="firestore" data-source-line="73" data-uid="lnk34" id="link_sqlite_firestore"><path d="M464.8003,633.4093 C464.9899,633.4645 465.18,633.52 465.3707,633.5758 C465.7521,633.6874 466.1358,633.8001 466.5218,633.9141 C467.2938,634.1421 468.0749,634.3748 468.8646,634.6123 C470.444,635.0874 472.058,635.5818 473.7029,636.0957 C476.9928,637.1236 480.4067,638.2295 483.9163,639.4156 C511.9925,648.9044 546.19,663.5219 572,684.2969 C669.415,762.6919 750.7775,877.2519 808.04,972.8006 C822.3556,996.6878 835.165,1019.3868 846.3424,1040.0354 C851.9311,1050.3598 857.1118,1060.1715 861.8687,1069.3629 C864.2472,1073.9586 866.5198,1078.3992 868.6845,1082.6713 C869.7668,1084.8073 868.1324,1081.5379 869.1605,1083.5879" fill="none" id="sqlite-to-firestore" style="stroke:#181818;stroke-width:1;"/><polygon fill="#181818" points="871.8503,1088.9512,871.3911,1079.1131,869.6088,1084.4818,864.2401,1082.6995,871.8503,1088.9512" style="stroke:#181818;stroke-width:1;"/><text fill="#000000" font-family="sans-serif" font-size="13" lengthAdjust="spacing" textLength="121.5195" x="599.3384" y="675.3638">Bi-directional Sync</text><text fill="#000000" font-family="sans-serif" font-size="13" lengthAdjust="spacing" textLength="158.1963" x="581" y="690.4966">(with conflict resolution)</text></g><!--link webStorage to firestore--><g class="link" data-entity-1="webStorage" data-entity-2="firestore" data-source-line="74" data-uid="lnk35" id="link_webStorage_firestore"><path d="M532.5292,1183.1309 C534.3549,1183.1828 536.1971,1183.2331 538.055,1183.2819 C597.5075,1184.8419 673.045,1184.7419 740,1178.2969 C748.845,1177.4456 757.9283,1176.3345 767.0573,1175.0404 C771.6218,1174.3934 776.1977,1173.7006 780.761,1172.9716 C783.0427,1172.6072 779.4039,1173.2267 781.6762,1172.8453" fill="none" id="webStorage-to-firestore" style="stroke:#181818;stroke-width:1;"/><polygon fill="#181818" points="787.5935,1171.8523,778.0556,1169.397,782.6624,1172.6798,779.3796,1177.2867,787.5935,1171.8523" style="stroke:#181818;stroke-width:1;"/><text fill="#000000" font-family="sans-serif" font-size="13" lengthAdjust="spacing" textLength="121.5195" x="599.5" y="1174.3638">Bi-directional Sync</text></g><!--link firestore to auth--><g class="link" data-entity-1="firestore" data-entity-2="auth" data-source-line="76" data-uid="lnk36" id="link_firestore_auth"><path d="M1072.6592,1089.1374 C1074.316,1088.5744 1075.9702,1088.0124 1077.6211,1087.4514 C1080.9229,1086.3296 1084.2112,1085.2123 1087.48,1084.1017 C1094.0174,1081.8805 1100.4763,1079.6861 1106.8072,1077.5351 C1119.4691,1073.2333 1125.9376,1071.0356 1137.1789,1067.2168" fill="none" id="firestore-to-auth" style="stroke:#181818;stroke-width:1;"/><polygon fill="#181818" points="1142.86,1065.2869,1133.0517,1064.3943,1138.1257,1066.8952,1135.6249,1071.9692,1142.86,1065.2869" style="stroke:#181818;stroke-width:1;"/><text fill="#000000" font-family="sans-serif" font-size="13" lengthAdjust="spacing" textLength="64.2319" x="1048" y="1072.3638">User Auth</text></g><!--link firestore to firebaseStorage--><g class="link" data-entity-1="firestore" data-entity-2="firebaseStorage" data-source-line="77" data-uid="lnk37" id="link_firestore_firebaseStorage"><path d="M787.2785,1176.1694 C786.7636,1176.3951 786.2492,1176.6224 785.7355,1176.8514 C784.708,1177.3094 783.683,1177.7741 782.6611,1178.2456 C778.5734,1180.1314 774.534,1182.1257 770.5734,1184.2339 C762.6522,1188.4505 755.0463,1193.1231 748,1198.2969 C743.13,1201.8769 743.71,1204.5169 740,1209.2969 C668.19,1301.8069 674.36,1355.3869 572,1412.2969 C558.5425,1419.7794 543.26,1424.73 527.8658,1427.9417 C525.9415,1428.3432 524.0155,1428.7175 522.0911,1429.0662 C521.61,1429.1533 521.1289,1429.2389 520.6481,1429.3229 C520.4077,1429.3649 526.081,1428.3925 525.8406,1428.4337" fill="none" id="firestore-to-firebaseStorage" style="stroke:#181818;stroke-width:1;"/><polygon fill="#181818" points="519.9269,1429.4477,529.4735,1431.8692,524.855,1428.6027,528.1215,1423.9843,519.9269,1429.4477" style="stroke:#181818;stroke-width:1;"/><text fill="#000000" font-family="sans-serif" font-size="13" lengthAdjust="spacing" textLength="99.9375" x="610.5" y="1205.3638">File References</text></g><!--link GMN38 to sqlite--><g class="link" data-entity-1="GMN38" data-entity-2="sqlite" data-source-line="81" data-uid="lnk40" id="link_GMN38_sqlite"><path d="M367.31,265.9469 C284.07,337.8469 157.89,472.2769 232.5,575.7969 C245.405,593.7044 263.7313,605.8413 284.0959,613.9523 C294.2783,618.0079 304.9702,621.057 315.7489,623.3178 C318.4436,623.8829 321.1437,624.3989 323.8426,624.8689 C324.18,624.9277 324.5173,624.9857 324.8547,625.043" fill="none" id="GMN38-sqlite" style="stroke:#181818;stroke-width:1;stroke-dasharray:7,7;"/></g><!--link GMN41 to webStorage--><g class="link" data-entity-1="GMN41" data-entity-2="webStorage" data-source-line="90" data-uid="lnk43" id="link_GMN41_webStorage"><path d="M352.31,96.0169 C309.19,105.7969 259.3,125.4169 232.5,164.7969 C171.43,254.5469 169.03,1053.7369 232.5,1141.7969 C257.965,1177.1319 305.45,1186.7994 347.6488,1187.3744 C358.1984,1187.5181 368.4177,1187.0936 377.88,1186.3598" fill="none" id="GMN41-webStorage" style="stroke:#181818;stroke-width:1;stroke-dasharray:7,7;"/></g><!--link firestore to GMN44--><g class="link" data-entity-1="firestore" data-entity-2="GMN44" data-source-line="98" data-uid="lnk46" id="link_firestore_GMN44"><path d="M850.6174,1088.3063 C850.1342,1087.6969 849.6485,1087.0833 849.1605,1086.4656 C848.1843,1085.2302 847.1986,1083.9784 846.2036,1082.7104 C844.2137,1080.1742 842.187,1077.5732 840.1266,1074.9091 C807.16,1032.2825 765.5738,973.4931 728.305,905.8344 C653.7675,770.5169 596.5,599.7219 660,451.7969 C694.42,371.6169 772.33,306.3069 830.2,266.3569" fill="none" id="firestore-GMN44" style="stroke:#181818;stroke-width:1;stroke-dasharray:7,7;"/></g><!--SRC=[ZLN1RXit4BtlLmosXyW7mKsCDBQH6f0bB-32TXohWGzs871tkH8ZYjoGN0T64Q3Vqa_hbtI6IsefEGLYo80qCvnvy-ODwOIJ70gjQxXdrd6Oj2sCOUwqOKlyPQgLSBnodU6Pv8q3fy68vSf1BGpQXLPPPjT2jSom3PIiMY-DxbGzrL8R-AKuBawAIH9HwKsh5LSE_ie0plVZBuwADyMCFDhKt0JhwvDtlytUPD-JF3Lph6IM_q-Qu-BjnSb-cgFZuukZAQR9Ni7l-0Utahb6cmtCkEkRyVQCEcDgYSpaBqDoNt9q0FdwqjxpCWTceGrXqnMlrac5QrqAJ3CI7-Q74rKRBUg3laQBc8dYF8J4GdtwRNlv_ECLJk1HNUcAIPW5kozglqfq-NY01bd1y3zPARdDWn7WeRFSsC_nLuEJNk2XpM2gc763dprfW_xW_fxr__Xfj4Gc8Uzn50Hv_eoAsSHQ3wtH3PeNOeDzXGIOlLhnEh65T07x-CKnE8NyZZVSS5LX8mcNoFKmiLqEKzSB0bVCyFhMR7CU1ZA3o3sLttWPDH-wMVFdnHEJ7LzOTF3GpXUhrO9o9wrKKdSrv0KkXA-Ovcs2SIyv3MMN9zQs2sOjTob92QhnxY5YwPexHb1IZgOU2-q3LtLFKe3NU-RSF8ag2cGWYS3xFX_LhS4QvdbNQatqxweD5qlsMv5AZa9PPvXoYSfm2i89FbXyEs7uWzNlwvvUfR1EgELBJJviEPzqRlMPW3ByygCDlzCTvGYwIRSLnkEpA4TajM4IyutwhJp8Vn2RJ0NZdUam70M8iR4gKOVReQg-NDGwdXrunAFdOhozHN6dwC2Z6dqJReNNf6gag1nWk9OTHM3-L0y_aGm13I5qWCYXs4z8lQSitmlOb-ifAGCtFLt8sEIDnckYRr3XLtmPMj1DO1A7yxuy2rVRf7v2BP1kJzyVbcVe-_VlVw3e9CByU0MsQrjjN31_Kb9iC4CDjWSHm_5v0kaldwyTDwYauBZNPcsnClAbOl3CCm4aBM0LmhOPxGFXp7RG3epsYEaYkQBwp8iwnNkZFThH7_CFDw2LV3u8ZjU_Nfz7iE311yV4aWIYPt9x6UoNVeT1A8ZwtKTNQkVqXW1kvzFZwxUuu8nUv1ruTvp9iHEubLsBUxsbPuwCqPiGwQNHamxm2HQLxp9ufaPREuvo1yA-XVKV]--></g></svg>